<?xml version="1.0" standalone="no"?>
<!DOCTYPE svg PUBLIC "-//W3C//DTD SVG 20010904//EN"
 "http://www.w3.org/TR/2001/REC-SVG-20010904/DTD/svg10.dtd">
<svg version="1.0" xmlns="http://www.w3.org/2000/svg"
 width="512.000000pt" height="512.000000pt" viewBox="0 0 512.000000 512.000000"
 preserveAspectRatio="xMidYMid meet">
<metadata>
Created by potrace 1.14, written by Peter Selinger 2001-2017
</metadata>
<g transform="translate(0.000000,512.000000) scale(0.100000,-0.100000)"
fill="#000000" stroke="none">
<path d="M610 4457 c-26 -13 -31 -21 -120 -211 -33 -70 -60 -138 -60 -151 0
-13 11 -37 24 -53 25 -28 25 -31 28 -256 3 -256 0 -245 83 -267 51 -14 62 -23
70 -59 8 -38 -18 -88 -50 -96 -37 -9 -86 15 -97 48 -10 28 -11 28 -89 28 -89
0 -87 2 -64 -77 11 -36 28 -62 60 -92 55 -50 84 -63 153 -66 79 -4 134 18 185
75 89 99 89 221 0 320 -25 28 -56 53 -69 56 -24 6 -24 7 -24 149 l0 143 48
-23 c26 -12 70 -33 97 -45 28 -12 101 -47 164 -76 62 -30 115 -54 116 -54 2 0
54 -24 117 -54 120 -57 190 -90 408 -191 74 -35 180 -84 235 -110 55 -26 125
-58 155 -72 30 -14 127 -59 215 -100 88 -42 185 -87 215 -100 30 -14 102 -48
160 -75 58 -28 115 -54 128 -59 l22 -9 0 -570 0 -570 -297 1 c-164 1 -288 4
-277 7 49 15 114 67 136 108 l22 42 109 4 c151 4 146 -2 147 231 0 134 -3 185
-14 205 -8 15 -55 66 -104 115 l-89 87 -83 0 -82 0 -66 58 c-37 31 -72 62 -78
67 -6 6 -35 31 -65 56 -30 25 -119 102 -198 170 l-145 124 -400 0 c-366 0
-404 -2 -437 -18 -67 -33 -99 -77 -195 -268 l-93 -187 -125 -4 c-135 -3 -154
-10 -200 -72 -20 -26 -21 -41 -21 -276 0 -226 2 -251 18 -267 14 -15 38 -19
126 -21 l109 -4 12 -29 c17 -41 93 -105 138 -117 28 -8 -9 -10 -155 -11 -105
-1 -199 -4 -208 -7 -42 -17 -45 -46 -45 -412 l1 -349 24 -35 c24 -36 65 -68
94 -73 9 -2 59 -4 112 -4 l97 -1 6 -34 c11 -58 73 -170 119 -215 106 -105 199
-144 342 -145 113 -1 177 16 260 69 99 64 192 193 211 293 l6 32 1008 0 1008
0 6 -34 c4 -19 22 -65 41 -103 134 -267 484 -344 720 -159 82 64 142 154 165
249 l12 47 177 0 c214 0 257 10 318 72 75 76 73 61 73 687 0 591 -3 628 -49
705 -17 29 -242 444 -346 641 -65 121 -96 159 -157 189 l-51 25 -572 1 -573 0
-54 24 c-29 13 -102 47 -163 76 -60 29 -137 65 -170 80 -33 15 -94 43 -135 63
-41 19 -140 65 -220 102 -80 37 -176 82 -215 100 -119 55 -222 104 -297 139
-40 18 -107 49 -148 69 -41 19 -110 51 -152 71 -103 48 -199 93 -332 155 -59
28 -110 51 -111 51 -2 0 -54 24 -117 54 -307 145 -422 197 -443 202 -11 2 -31
-2 -45 -9z m200 -235 c47 -22 121 -56 165 -77 44 -20 114 -53 155 -72 41 -20
102 -48 135 -63 69 -32 183 -85 305 -142 47 -22 175 -82 285 -133 110 -51 243
-113 295 -138 52 -24 120 -56 150 -70 30 -13 96 -44 145 -67 50 -23 117 -55
150 -70 82 -38 188 -87 328 -153 l117 -56 0 -85 c0 -47 -2 -86 -4 -86 -3 0
-44 18 -93 41 -87 41 -155 72 -275 128 -35 16 -121 56 -192 90 -70 33 -130 61
-131 61 -1 0 -54 24 -116 54 -124 58 -215 101 -324 151 -78 36 -106 49 -464
216 -139 66 -255 119 -256 119 -2 0 -73 34 -160 75 -86 41 -158 75 -159 75 -5
0 -240 111 -245 115 -2 2 11 35 29 74 37 79 21 78 160 13z m2550 -1507 c0
-437 2 -455 52 -469 13 -3 330 -6 706 -6 l682 0 0 -79 0 -80 -189 -3 c-207 -3
-216 -6 -265 -72 -19 -25 -21 -42 -21 -166 0 -124 2 -141 21 -166 49 -66 58
-69 265 -72 l189 -4 0 -79 0 -79 -120 0 -120 0 0 -80 0 -80 120 0 120 0 0 -52
c0 -37 -6 -61 -20 -78 -19 -25 -20 -25 -204 -28 -148 -3 -186 -1 -187 10 -2
30 -9 52 -38 114 -42 90 -126 176 -215 219 -91 44 -142 55 -241 51 -149 -7
-285 -82 -368 -203 -32 -46 -76 -148 -77 -175 0 -16 -13 -18 -125 -18 l-125 0
0 1000 0 1000 80 0 80 0 0 -405z m994 383 c13 -13 43 -59 67 -103 23 -44 56
-107 74 -140 18 -33 75 -139 127 -235 53 -96 100 -185 107 -197 l12 -23 -611
0 -610 0 0 360 0 360 404 0 405 0 25 -22z m-3154 -298 l0 -160 -255 0 -255 0
75 149 c41 83 82 154 92 160 10 6 87 11 181 11 l162 0 0 -160z m507 43 c74
-65 150 -129 167 -143 82 -65 102 -60 -222 -60 l-292 0 0 160 0 160 106 0 105
0 136 -117z m1257 22 l76 -36 0 -494 0 -495 -80 0 -80 0 0 530 c0 292 2 530 4
530 2 0 38 -16 80 -35z m-621 -443 l57 -58 0 -102 0 -102 -48 0 c-42 0 -48 3
-60 28 -42 96 -170 152 -279 121 -35 -9 -63 -28 -100 -65 -29 -29 -53 -60 -53
-68 0 -14 -53 -16 -499 -16 l-499 0 -12 30 c-17 42 -90 104 -138 118 -107 32
-215 -10 -278 -109 -22 -36 -28 -39 -69 -39 l-45 0 0 160 0 160 983 0 983 0
57 -58z m-1658 -278 c33 -21 42 -74 20 -107 -36 -56 -128 -38 -140 27 -14 72
58 120 120 80z m1451 -5 c19 -15 28 -73 15 -97 -5 -10 -24 -25 -41 -32 -71
-30 -137 49 -95 113 9 14 24 28 33 31 24 6 72 -2 88 -15z m-276 -155 c0 -24
101 -119 140 -131 26 -8 -133 -11 -640 -11 -489 0 -667 3 -645 10 61 22 114
69 136 121 l11 27 499 0 c446 0 499 -2 499 -16z m2940 -144 l0 -80 -160 0
-160 0 0 80 0 80 160 0 160 0 0 -80z m-1760 -440 l0 -280 -805 0 c-443 0 -805
3 -806 8 -10 107 -113 259 -216 319 -161 94 -358 94 -507 -2 -100 -64 -193
-192 -212 -292 l-6 -33 -84 0 -84 0 0 280 0 280 1360 0 1360 0 0 -280z m-1945
-71 c62 -29 122 -89 155 -154 34 -69 35 -197 0 -269 -30 -62 -93 -126 -155
-156 -71 -34 -199 -34 -270 0 -142 69 -217 237 -170 381 35 106 104 177 205
212 65 23 172 16 235 -14z m2960 0 c78 -37 139 -106 163 -186 26 -86 27 -132
6 -197 -36 -110 -108 -179 -218 -211 -107 -31 -226 -2 -305 75 -148 143 -127
386 43 495 68 43 105 53 191 50 49 -1 85 -9 120 -26z"/>
<path d="M3360 2000 l0 -80 160 0 160 0 0 80 0 80 -160 0 -160 0 0 -80z"/>
<path d="M880 1040 l0 -80 80 0 80 0 0 80 0 80 -80 0 -80 0 0 -80z"/>
<path d="M3840 1040 l0 -80 80 0 80 0 0 80 0 80 -80 0 -80 0 0 -80z"/>
</g>
</svg>
