<?xml version="1.0" standalone="no"?>
<!DOCTYPE svg PUBLIC "-//W3C//DTD SVG 20010904//EN"
 "http://www.w3.org/TR/2001/REC-SVG-20010904/DTD/svg10.dtd">
<svg version="1.0" xmlns="http://www.w3.org/2000/svg"
 width="43701.000000pt" height="9449.000000pt" viewBox="0 0 43701.000000 9449.000000"
 preserveAspectRatio="xMidYMid meet">

<g transform="translate(0.000000,9449.000000) scale(0.100000,-0.100000)"
fill="#000000" stroke="none">
<path d="M9358 86288 l-3 -53 -73 -28 c-41 -15 -114 -39 -164 -52 -112 -30
-200 -71 -258 -120 -25 -21 -76 -58 -115 -83 -102 -64 -293 -263 -356 -369
-27 -47 -67 -108 -88 -136 -49 -65 -71 -111 -105 -212 -15 -47 -53 -124 -91
-185 -48 -77 -75 -135 -101 -217 -26 -80 -53 -140 -96 -207 -32 -52 -70 -128
-84 -168 -46 -134 -67 -182 -121 -269 -29 -48 -66 -124 -82 -170 -45 -133 -61
-169 -118 -259 -31 -51 -71 -138 -99 -215 -28 -79 -67 -162 -101 -216 -35 -56
-72 -137 -103 -223 -30 -84 -65 -161 -93 -203 -58 -89 -58 -88 -107 -228 -27
-77 -62 -152 -98 -209 -37 -59 -69 -129 -97 -210 -29 -85 -60 -152 -102 -219
-38 -61 -70 -128 -88 -184 -31 -94 -71 -180 -134 -281 -22 -35 -54 -107 -71
-160 -37 -112 -45 -128 -111 -238 -27 -44 -69 -135 -93 -201 -25 -73 -66 -160
-101 -217 -37 -63 -75 -144 -106 -232 -31 -89 -62 -157 -89 -195 -47 -68 -77
-131 -114 -249 -32 -97 -45 -124 -91 -189 -48 -68 -69 -114 -105 -231 -18 -58
-59 -157 -91 -220 -32 -63 -66 -144 -74 -180 -27 -115 -41 -390 -27 -563 14
-180 35 -263 101 -395 27 -53 63 -133 82 -177 18 -44 40 -91 48 -105 41 -65
211 -255 310 -347 88 -80 130 -111 207 -150 122 -61 193 -128 223 -209 l22
-57 -1 -4106 c0 -2611 4 -4175 10 -4296 6 -104 17 -221 25 -259 9 -41 44 -131
85 -217 38 -81 70 -153 70 -159 0 -25 82 -167 121 -210 23 -25 65 -77 95 -117
30 -39 71 -85 91 -102 21 -17 73 -59 116 -93 136 -110 177 -136 265 -168 48
-17 137 -56 197 -86 62 -31 140 -61 180 -69 39 -8 187 -22 331 -30 348 -20
410 -31 548 -100 60 -31 150 -72 200 -92 105 -42 142 -64 211 -125 28 -24 79
-66 115 -93 74 -56 87 -69 143 -145 22 -30 61 -77 85 -105 62 -69 83 -106 127
-215 20 -52 54 -126 75 -165 58 -109 80 -180 96 -305 26 -215 12 -551 -30
-672 -8 -24 -41 -99 -74 -168 -33 -69 -72 -154 -86 -190 -14 -36 -44 -87 -66
-115 -22 -27 -71 -91 -110 -142 -39 -51 -87 -106 -108 -122 -20 -17 -73 -60
-117 -96 -112 -92 -172 -130 -251 -160 -38 -15 -123 -53 -189 -85 -66 -33
-149 -66 -185 -74 -123 -28 -324 -39 -500 -27 -215 15 -298 33 -390 84 -67 38
-145 75 -185 87 -69 21 -172 80 -229 130 -30 26 -83 69 -118 95 -77 59 -92 74
-148 150 -24 33 -63 82 -87 109 -56 63 -83 110 -126 216 -19 47 -58 131 -86
187 -56 111 -65 145 -81 308 -9 84 -17 120 -35 151 -47 81 89 75 -1588 72
l-1496 -3 -28 -21 c-71 -53 -76 -94 -50 -409 23 -280 29 -316 81 -488 25 -81
61 -227 81 -325 43 -217 58 -266 129 -412 30 -63 67 -157 81 -209 30 -107 56
-163 119 -253 24 -34 65 -114 91 -177 31 -72 69 -141 105 -190 31 -42 75 -109
98 -148 24 -40 69 -105 101 -145 32 -40 75 -100 96 -133 78 -123 517 -585 643
-678 48 -35 107 -84 132 -108 25 -25 74 -67 110 -94 36 -27 91 -72 122 -101
31 -29 83 -64 115 -79 127 -59 180 -89 223 -125 60 -49 111 -80 190 -114 36
-15 101 -51 145 -80 79 -53 130 -74 273 -116 41 -12 124 -47 185 -79 117 -61
199 -86 380 -116 55 -9 160 -36 235 -60 155 -49 247 -69 412 -89 254 -33 367
-38 715 -34 466 6 677 34 990 132 61 19 155 41 210 51 171 28 249 52 366 111
63 31 174 76 247 100 100 31 152 55 211 93 42 28 128 73 189 100 67 29 138 70
176 99 35 28 105 72 156 98 51 26 116 69 144 94 28 26 94 78 146 117 52 39
106 83 120 98 14 15 59 54 100 86 90 70 192 169 360 350 202 218 263 288 301
348 19 31 64 90 98 131 35 41 81 107 103 147 21 40 62 103 90 140 58 79 74
108 120 223 19 47 62 127 96 179 45 67 69 117 88 180 41 138 53 170 110 286
54 112 87 224 119 405 9 52 41 181 70 285 30 105 59 219 64 255 45 294 45
1059 0 1370 -6 41 -33 148 -59 237 -27 90 -58 213 -70 275 -49 260 -59 295
-136 453 -29 61 -65 153 -80 205 -36 127 -51 159 -121 266 -32 50 -70 119 -83
155 -34 93 -57 135 -114 214 -28 39 -71 104 -95 145 -25 41 -70 107 -101 145
-32 39 -77 99 -100 135 -24 36 -67 90 -95 120 -28 30 -75 84 -105 120 -90 106
-370 388 -440 443 -36 28 -93 77 -127 108 -34 31 -88 74 -120 95 -32 22 -87
65 -122 96 -36 32 -100 76 -142 98 -43 22 -116 69 -164 105 -59 44 -115 75
-181 101 -53 20 -129 58 -169 85 -104 68 -119 74 -236 107 -57 16 -122 38
-145 50 -56 29 -108 90 -130 153 -18 52 -19 139 -19 2714 l0 2660 24 49 c17
34 33 52 57 62 37 16 40 15 149 -37 45 -21 114 -50 155 -64 41 -15 116 -53
165 -84 63 -41 127 -70 214 -100 77 -26 150 -59 192 -86 95 -61 112 -69 256
-121 78 -27 153 -62 193 -88 88 -59 109 -69 241 -114 67 -23 144 -59 185 -85
95 -61 114 -70 247 -116 68 -23 141 -57 174 -79 79 -54 143 -84 243 -117 102
-33 142 -53 225 -110 43 -29 101 -55 177 -80 129 -42 142 -48 242 -114 48 -31
116 -62 197 -90 88 -30 150 -59 214 -100 56 -36 122 -69 175 -86 123 -40 178
-64 240 -105 78 -53 90 -58 240 -112 85 -31 160 -66 203 -94 70 -48 136 -77
274 -124 46 -16 113 -48 150 -73 92 -61 114 -71 239 -113 76 -25 137 -53 200
-94 63 -41 125 -71 200 -96 127 -43 145 -51 243 -115 50 -33 109 -60 189 -86
63 -20 138 -52 166 -69 127 -80 163 -98 270 -134 71 -23 142 -56 185 -84 96
-62 117 -72 234 -112 102 -36 158 -63 252 -122 28 -18 113 -54 190 -82 92 -33
162 -66 205 -95 63 -44 173 -92 294 -129 32 -10 87 -38 122 -62 91 -62 135
-83 264 -124 78 -24 139 -52 185 -82 98 -63 115 -71 248 -113 94 -29 134 -48
205 -96 66 -45 113 -68 197 -95 126 -41 162 -58 250 -119 43 -29 101 -55 177
-80 125 -41 176 -64 228 -105 52 -40 88 -57 233 -106 87 -29 154 -60 197 -88
86 -58 94 -61 234 -113 67 -24 153 -64 191 -87 99 -62 127 -75 240 -113 62
-21 141 -58 208 -99 75 -45 142 -76 217 -100 73 -24 134 -51 185 -84 103 -68
134 -82 250 -118 75 -23 123 -46 185 -88 51 -34 125 -72 186 -94 118 -44 144
-57 244 -121 42 -26 113 -60 160 -75 122 -39 165 -59 251 -115 57 -37 112 -61
228 -99 112 -36 170 -61 220 -95 73 -48 122 -71 261 -125 47 -18 110 -50 140
-70 81 -55 122 -73 261 -118 96 -31 148 -55 213 -97 48 -31 123 -70 169 -86
128 -46 156 -60 241 -116 48 -32 108 -61 150 -74 39 -12 99 -30 132 -41 34
-10 100 -44 145 -75 58 -39 120 -69 199 -98 75 -26 151 -63 215 -103 60 -38
131 -72 179 -87 110 -36 173 -63 236 -105 80 -54 109 -67 227 -104 136 -43
151 -50 246 -109 43 -27 138 -73 211 -102 73 -28 159 -70 192 -92 82 -56 103
-66 232 -108 74 -24 137 -53 187 -85 99 -65 112 -72 240 -114 67 -23 136 -54
176 -80 91 -60 128 -78 253 -120 77 -26 135 -54 200 -97 67 -44 117 -67 191
-90 115 -36 147 -51 250 -118 41 -27 107 -59 146 -71 123 -38 190 -68 268
-120 50 -32 119 -64 202 -93 144 -51 152 -55 239 -113 41 -28 115 -61 201 -92
75 -26 149 -57 166 -68 119 -74 168 -99 268 -134 130 -44 144 -51 240 -114 45
-30 108 -59 180 -82 125 -41 144 -50 237 -111 45 -31 111 -60 206 -92 107 -37
160 -61 225 -104 55 -37 114 -66 173 -85 104 -34 177 -69 254 -123 35 -24 100
-54 170 -77 129 -44 179 -67 263 -124 33 -22 106 -56 173 -79 127 -44 176 -66
242 -111 53 -37 124 -68 250 -112 56 -19 126 -52 161 -76 75 -50 145 -83 266
-122 51 -16 118 -48 156 -72 92 -61 132 -81 253 -121 74 -25 133 -53 195 -94
59 -39 118 -67 177 -86 124 -40 177 -64 267 -123 50 -33 112 -62 170 -81 124
-39 162 -56 227 -100 78 -53 90 -59 224 -106 67 -23 144 -56 171 -73 28 -17
69 -43 93 -58 23 -14 103 -48 177 -74 89 -31 158 -63 204 -93 79 -54 118 -71
256 -117 56 -19 129 -52 168 -76 95 -61 148 -86 259 -123 60 -20 126 -51 170
-80 96 -63 118 -74 215 -105 118 -37 149 -51 236 -108 52 -34 117 -64 203 -94
69 -24 145 -55 168 -69 22 -15 66 -42 95 -61 30 -18 98 -48 150 -65 110 -36
144 -52 244 -117 41 -27 100 -56 133 -66 118 -37 220 -80 274 -116 78 -53 103
-64 247 -115 84 -30 150 -61 193 -90 61 -42 104 -61 288 -130 40 -15 105 -48
145 -75 69 -44 189 -100 219 -100 27 -1 146 -58 219 -107 48 -31 110 -61 165
-78 124 -40 177 -64 267 -123 55 -36 112 -62 193 -88 63 -20 138 -51 167 -70
127 -80 157 -96 246 -125 108 -35 172 -65 252 -120 32 -21 107 -55 172 -78
127 -44 169 -63 257 -120 33 -21 95 -51 137 -66 156 -56 209 -79 263 -115 79
-53 109 -67 246 -115 75 -26 146 -58 182 -83 81 -55 120 -73 247 -116 70 -24
137 -55 185 -86 85 -55 157 -89 245 -115 72 -20 112 -40 209 -104 52 -33 111
-60 189 -85 63 -20 138 -52 168 -71 131 -81 161 -96 273 -130 128 -39 182 -63
236 -105 50 -39 102 -63 210 -98 124 -40 152 -52 232 -105 37 -24 125 -68 195
-97 70 -28 159 -72 196 -97 73 -48 139 -76 277 -117 47 -14 110 -41 140 -60
100 -63 188 -105 283 -136 60 -19 123 -48 170 -80 103 -66 116 -72 241 -114
80 -26 133 -51 200 -95 55 -37 126 -72 181 -92 108 -38 150 -58 236 -115 41
-28 107 -58 180 -83 129 -43 157 -56 249 -117 37 -24 111 -59 170 -80 148 -51
166 -59 250 -114 54 -36 116 -63 224 -99 83 -28 170 -64 195 -80 75 -49 171
-96 266 -131 50 -18 120 -52 157 -76 99 -64 130 -78 260 -118 83 -26 138 -51
192 -86 100 -65 113 -71 241 -114 78 -26 136 -54 200 -96 68 -44 121 -69 214
-100 94 -31 145 -54 212 -99 64 -43 115 -67 191 -91 119 -38 156 -55 249 -117
46 -31 112 -60 206 -92 93 -32 158 -61 201 -89 72 -50 154 -88 268 -126 44
-15 114 -47 155 -72 103 -64 139 -81 256 -125 56 -21 128 -55 160 -77 84 -57
125 -75 254 -116 83 -25 137 -49 190 -84 99 -66 117 -74 239 -113 75 -24 130
-50 190 -89 47 -31 115 -70 151 -87 70 -32 107 -71 128 -132 8 -25 11 -2903
11 -11295 0 -10957 -1 -11262 -19 -11302 -11 -24 -33 -50 -53 -62 l-35 -22
-5584 -5 c-3071 -3 -5643 -6 -5716 -6 -142 -1 -263 17 -346 53 -53 23 -70 45
-56 71 23 40 109 66 357 107 135 22 175 35 337 108 61 27 156 62 213 77 57 15
125 42 155 60 28 17 81 50 117 72 36 22 98 52 138 67 40 16 94 43 120 62 88
64 177 121 229 147 28 15 84 55 125 90 40 35 96 79 123 97 28 19 77 59 110 90
33 31 85 75 115 99 97 76 378 360 473 480 15 19 57 66 93 104 36 37 85 99 109
135 23 37 66 96 95 132 29 36 74 108 100 160 26 53 68 120 92 150 58 72 79
109 118 203 18 43 54 111 81 152 67 103 73 117 104 230 43 160 74 202 176 242
41 17 154 18 1849 24 1175 4 1824 10 1860 16 99 19 143 34 250 88 58 28 134
62 170 74 94 32 138 57 237 138 48 39 113 91 143 115 30 24 86 85 125 135 38
50 86 111 106 134 42 51 68 99 104 196 14 37 48 113 75 168 59 119 77 184 90
325 14 149 14 6695 0 6827 -16 142 -34 205 -94 323 -29 58 -59 123 -66 145
-27 83 -82 182 -135 243 -31 35 -73 89 -94 120 -28 42 -810 844 -1059 1087
-54 53 -637 636 -1385 1386 -456 456 -854 848 -885 871 -32 23 -82 62 -112 88
-82 70 -125 94 -235 135 -55 20 -131 54 -170 75 -78 43 -137 64 -222 81 -42 9
-455 14 -1468 18 l-1410 6 -56 23 c-33 13 -83 47 -125 85 -38 34 -90 77 -114
96 -25 19 -74 62 -110 96 -36 33 -87 78 -115 100 -27 21 -77 64 -110 96 -33
31 -91 80 -130 110 -38 29 -86 69 -105 89 -19 20 -67 62 -107 93 -39 31 -74
61 -78 66 -3 5 -56 52 -118 105 -61 52 -130 111 -152 131 -22 20 -78 66 -125
103 -47 36 -107 88 -135 113 -27 26 -75 67 -105 90 -30 24 -86 73 -125 109
-38 36 -88 78 -110 94 -22 17 -69 58 -105 92 -36 34 -96 85 -135 115 -38 29
-83 67 -100 84 -16 17 -57 53 -90 79 -33 27 -82 69 -110 95 -27 26 -77 69
-110 96 -33 28 -98 84 -145 125 -47 41 -114 98 -150 125 -36 27 -87 70 -115
96 -27 26 -85 76 -127 111 -134 110 -239 201 -312 269 -39 36 -104 92 -145
124 -40 32 -85 70 -100 85 -14 15 -53 48 -86 75 -33 26 -97 82 -142 123 -45
41 -92 81 -105 90 -13 9 -61 50 -108 92 -47 42 -119 103 -160 135 -41 33 -95
78 -120 101 -25 23 -80 70 -122 105 -125 103 -236 199 -312 269 -39 36 -100
88 -136 115 -36 27 -83 68 -105 90 -22 23 -65 60 -95 84 -30 23 -77 64 -105
90 -27 26 -77 69 -110 96 -33 26 -96 80 -140 120 -44 39 -114 98 -155 130 -41
32 -95 77 -120 101 -25 23 -80 71 -122 106 -123 101 -237 198 -307 264 -36 33
-102 89 -145 124 -44 35 -103 85 -130 111 -28 26 -73 64 -101 85 -27 20 -77
63 -110 95 -33 31 -82 74 -110 95 -27 20 -90 72 -140 115 -92 79 -234 199
-328 277 -57 47 -231 201 -336 298 -36 33 -99 87 -140 119 -41 32 -88 73 -105
90 -17 18 -69 63 -116 100 -47 38 -112 93 -146 124 -115 105 -269 237 -339
291 -38 29 -92 74 -120 100 -27 26 -79 69 -115 95 -36 27 -99 80 -142 119
-184 171 -250 229 -317 281 -39 30 -86 70 -104 88 -17 18 -70 64 -117 102 -47
37 -110 91 -141 119 -135 123 -280 247 -351 299 -42 31 -108 85 -145 120 -37
34 -84 75 -103 91 -19 15 -60 52 -90 80 -30 29 -89 77 -130 108 -41 30 -91 72
-110 93 -19 20 -64 61 -100 90 -36 29 -90 76 -120 105 -30 29 -87 74 -126 101
-40 26 -93 67 -120 89 -69 61 -115 87 -218 127 -50 19 -127 54 -171 78 -44 24
-102 51 -130 60 -139 47 159 45 -7420 45 -8119 0 -7602 5 -7892 -81 -179 -53
-278 -77 -375 -94 -187 -33 -283 -62 -405 -125 -66 -33 -153 -69 -198 -81
-112 -29 -168 -54 -259 -117 -45 -32 -115 -69 -165 -87 -116 -43 -143 -58
-226 -120 -38 -29 -104 -72 -145 -95 -41 -24 -97 -63 -125 -88 -27 -25 -93
-73 -145 -108 -52 -35 -117 -84 -145 -110 -27 -26 -106 -99 -175 -163 -247
-228 -393 -387 -530 -575 -24 -33 -75 -97 -113 -141 -38 -44 -85 -111 -104
-150 -20 -38 -60 -104 -89 -147 -30 -42 -76 -123 -103 -180 -27 -56 -71 -133
-99 -171 -46 -61 -78 -128 -126 -259 -10 -26 -41 -84 -71 -128 -48 -73 -83
-145 -129 -272 -10 -26 -41 -84 -71 -128 -48 -73 -83 -145 -129 -271 -9 -25
-37 -76 -61 -112 -57 -85 -86 -143 -120 -240 -16 -43 -54 -119 -86 -168 -53
-83 -87 -155 -133 -280 -9 -25 -40 -82 -70 -126 -49 -74 -84 -148 -130 -274
-9 -25 -40 -82 -70 -126 -49 -74 -83 -147 -130 -276 -10 -26 -37 -75 -60 -110
-55 -80 -87 -142 -122 -241 -15 -44 -49 -112 -76 -153 -60 -92 -87 -147 -123
-247 -16 -44 -51 -113 -77 -153 -60 -92 -87 -147 -123 -247 -16 -44 -51 -113
-77 -153 -60 -92 -87 -147 -123 -247 -16 -44 -51 -113 -77 -153 -60 -92 -87
-147 -124 -248 -16 -44 -48 -109 -72 -145 -56 -82 -91 -154 -128 -255 -16 -44
-48 -109 -72 -145 -56 -82 -91 -154 -128 -255 -16 -44 -48 -109 -72 -145 -56
-82 -91 -154 -128 -255 -16 -44 -48 -109 -72 -145 -57 -84 -93 -156 -128 -255
-16 -44 -48 -109 -72 -145 -57 -84 -87 -145 -128 -253 -55 -150 -152 -284
-238 -330 l-41 -22 -2050 -6 c-1853 -5 -2060 -7 -2153 -22 -132 -21 -205 -40
-322 -84 -105 -40 -185 -64 -305 -92 -101 -25 -155 -48 -227 -98 -32 -22 -104
-59 -160 -83 -116 -48 -130 -56 -213 -121 -33 -26 -96 -68 -140 -94 -44 -26
-107 -73 -140 -105 -33 -31 -80 -72 -105 -92 -57 -45 -251 -238 -298 -298 -20
-25 -62 -73 -93 -106 -31 -34 -77 -97 -103 -140 -27 -44 -65 -99 -85 -124 -62
-76 -77 -102 -120 -205 -23 -54 -64 -135 -92 -178 -65 -100 -72 -118 -113
-282 -19 -74 -47 -169 -63 -210 l-28 -75 -52 0 -53 0 0 -4655 0 -4655 54 0 53
0 35 -77 c19 -43 43 -100 54 -128 28 -77 62 -134 119 -200 28 -33 70 -86 93
-117 51 -69 67 -85 157 -154 39 -30 97 -77 129 -104 64 -53 109 -77 220 -117
39 -14 99 -40 133 -59 87 -48 176 -80 264 -95 57 -10 486 -14 1874 -19 1732
-5 1802 -6 1849 -24 27 -10 65 -35 85 -55 40 -40 55 -75 96 -221 20 -72 41
-119 89 -195 34 -55 68 -116 76 -135 31 -80 81 -169 129 -228 28 -34 71 -103
97 -153 26 -50 66 -114 89 -143 24 -28 63 -83 88 -121 25 -39 62 -86 82 -105
20 -19 69 -73 108 -120 155 -185 397 -434 492 -505 39 -29 95 -76 125 -105 30
-29 80 -71 110 -93 30 -22 81 -64 112 -93 37 -34 95 -71 163 -104 58 -28 138
-76 177 -107 40 -30 118 -76 174 -103 55 -26 132 -69 171 -96 47 -33 95 -57
149 -73 43 -13 108 -32 143 -43 35 -10 111 -42 170 -69 114 -55 209 -81 373
-104 113 -16 220 -45 256 -71 52 -36 2 -89 -112 -118 -125 -31 -251 -37 -529
-26 -355 14 -6266 14 -6472 0 -205 -14 -270 -30 -402 -95 -62 -30 -145 -67
-185 -81 -98 -35 -140 -60 -255 -155 -54 -44 -115 -93 -136 -110 -21 -17 -56
-56 -79 -87 -23 -31 -68 -87 -100 -123 -54 -62 -97 -136 -128 -219 -7 -19 -28
-70 -48 -113 l-35 -77 -54 0 -53 0 0 -7055 0 -7055 53 0 52 0 37 -108 c21 -59
49 -153 62 -208 30 -125 44 -158 105 -254 26 -41 62 -111 80 -155 37 -91 80
-164 124 -215 17 -19 55 -73 85 -120 31 -47 81 -112 112 -145 31 -33 77 -87
102 -120 60 -78 238 -251 308 -300 30 -21 80 -62 110 -91 30 -29 94 -77 141
-107 48 -31 102 -69 120 -85 52 -44 105 -74 208 -117 52 -21 135 -65 183 -98
82 -55 100 -63 236 -98 81 -21 197 -57 257 -79 151 -54 247 -78 400 -97 115
-15 337 -17 1905 -22 1434 -5 1781 -9 1805 -19 76 -33 108 -96 120 -234 14
-160 73 -419 124 -551 21 -54 60 -202 76 -292 20 -107 60 -232 107 -335 40
-87 59 -142 88 -263 27 -113 48 -165 109 -274 32 -57 64 -134 90 -220 43 -141
61 -181 123 -280 22 -35 57 -105 78 -157 48 -117 62 -145 112 -218 21 -31 55
-94 74 -140 51 -123 73 -164 125 -232 26 -35 67 -103 92 -152 25 -49 69 -121
99 -159 30 -39 74 -107 98 -152 24 -45 70 -115 102 -155 32 -40 77 -103 98
-139 22 -36 66 -97 98 -135 32 -38 78 -98 102 -134 23 -36 68 -94 99 -130 31
-36 76 -91 99 -123 41 -55 93 -112 297 -332 52 -55 144 -154 205 -220 61 -65
170 -175 243 -242 239 -224 341 -319 427 -399 47 -44 108 -95 135 -114 28 -18
76 -58 108 -87 32 -29 91 -74 130 -100 40 -25 106 -74 147 -108 41 -34 109
-84 150 -112 41 -28 104 -74 140 -103 36 -29 101 -70 145 -91 44 -21 116 -66
160 -100 44 -33 116 -79 159 -102 44 -23 111 -65 149 -94 38 -29 104 -66 146
-83 110 -45 182 -83 243 -130 31 -24 98 -58 162 -82 59 -23 151 -68 203 -100
79 -49 119 -65 251 -104 119 -34 174 -56 229 -90 106 -66 165 -90 307 -124 72
-18 181 -54 244 -81 136 -58 204 -80 360 -115 64 -14 178 -45 252 -69 257 -83
287 -90 530 -125 74 -11 235 -36 358 -57 l222 -37 0 -53 0 -53 1300 0 1300 0
0 53 0 53 223 37 c122 20 299 48 392 62 202 30 270 46 475 113 85 27 225 64
310 82 206 41 246 53 371 110 58 27 169 67 247 89 104 30 176 58 265 104 67
35 181 83 252 107 92 30 155 59 214 96 46 30 138 74 203 100 72 28 141 63 176
89 63 47 119 77 234 125 43 17 104 52 135 77 32 25 108 70 170 100 61 30 142
80 180 110 37 30 100 73 140 94 39 22 103 66 143 98 39 32 102 75 141 96 38
21 95 60 127 86 31 27 86 70 121 96 35 26 92 71 125 100 34 29 95 78 136 109
41 32 109 89 152 128 42 39 134 123 204 186 160 143 490 474 649 650 66 73
152 167 191 209 39 42 93 105 119 141 27 36 75 94 106 130 31 36 77 97 102
135 25 39 67 95 93 125 26 30 72 93 102 140 31 47 79 114 107 150 29 36 76
108 105 160 29 52 70 116 92 141 21 25 64 95 96 155 32 60 79 136 105 170 29
37 67 107 97 178 27 64 73 150 101 192 29 42 74 131 103 202 29 70 73 161 99
202 35 55 61 117 97 230 32 98 66 182 94 230 61 105 81 156 120 310 18 74 52
177 75 228 60 132 78 189 112 347 16 77 54 220 84 319 67 216 91 323 106 470
19 184 55 248 154 275 57 16 40043 16 40100 0 94 -26 131 -83 146 -223 6 -50
19 -141 30 -203 18 -103 35 -168 118 -438 17 -55 40 -145 51 -200 31 -158 50
-220 103 -335 40 -88 68 -172 97 -290 28 -113 42 -149 100 -250 41 -72 110
-249 110 -281 0 -25 57 -150 99 -219 52 -83 59 -98 106 -217 18 -45 57 -117
86 -160 28 -42 68 -115 87 -162 47 -118 64 -149 119 -223 27 -35 70 -104 96
-155 26 -50 72 -124 103 -165 31 -40 72 -104 91 -143 20 -38 64 -106 98 -150
34 -44 82 -111 107 -150 25 -38 70 -99 100 -135 31 -36 77 -98 102 -138 26
-39 70 -98 99 -129 29 -32 70 -83 92 -113 21 -30 73 -91 114 -136 219 -235
281 -302 307 -334 64 -79 233 -241 759 -732 44 -41 102 -90 130 -109 27 -18
75 -57 107 -86 31 -28 90 -73 130 -100 40 -26 107 -75 148 -109 41 -33 104
-80 140 -104 36 -24 98 -70 139 -102 40 -33 112 -79 160 -103 47 -24 122 -71
166 -103 43 -33 113 -78 154 -99 41 -21 104 -61 141 -89 39 -30 103 -66 160
-89 105 -43 170 -79 236 -129 24 -19 92 -53 151 -77 115 -46 172 -74 240 -121
50 -34 85 -47 251 -94 94 -26 141 -46 203 -84 100 -63 149 -83 307 -122 70
-17 177 -52 240 -79 124 -53 218 -83 389 -123 62 -15 181 -49 265 -76 174 -57
282 -81 483 -110 77 -11 240 -37 363 -57 l222 -37 0 -53 0 -53 1300 0 1300 0
0 53 0 53 158 27 c86 15 234 38 327 52 340 51 366 56 625 140 74 24 205 58
290 75 204 41 246 54 370 110 109 50 141 61 299 105 58 16 141 50 215 89 67
35 173 81 236 101 128 42 163 58 251 115 33 21 113 59 177 84 77 30 141 63
187 97 72 52 94 63 226 118 42 18 103 52 135 78 33 25 111 71 174 103 63 32
146 83 184 113 38 31 99 72 136 92 36 20 99 63 140 95 41 32 105 76 142 96 38
21 94 59 126 85 31 27 100 81 152 121 52 40 118 93 145 118 28 26 75 64 105
85 30 21 89 70 131 109 42 39 136 125 208 191 247 224 615 599 771 785 30 36
75 85 99 110 24 25 62 70 84 100 23 30 67 85 99 121 31 37 80 101 107 142 28
42 71 99 96 127 26 29 71 91 102 138 30 48 79 116 108 152 28 36 71 101 95
145 23 44 69 116 102 159 33 43 79 118 103 165 24 47 63 111 87 142 49 62 73
108 120 223 17 44 55 115 85 157 30 44 72 128 99 193 25 63 62 141 81 173 70
114 82 140 118 263 38 127 47 148 129 303 32 59 56 121 72 190 34 138 49 185
100 303 50 116 76 197 98 304 29 142 46 210 96 367 60 192 85 305 100 443 19
180 45 237 125 272 24 11 655 14 3435 19 2508 4 3435 9 3520 17 242 25 387 52
545 102 124 39 195 57 300 75 150 26 230 52 353 114 64 33 153 69 197 81 117
32 152 48 230 100 81 54 134 82 190 100 68 21 150 66 217 117 35 27 101 70
147 97 46 26 110 72 142 102 32 30 89 74 126 97 38 24 75 52 83 62 8 10 65 60
126 111 209 174 505 488 664 703 36 48 88 113 115 144 28 31 71 96 97 145 26
49 72 123 102 163 33 44 73 114 98 174 23 55 67 138 98 185 58 90 71 119 115
265 15 50 47 128 72 175 61 113 77 164 118 365 19 93 46 209 61 258 l27 87 54
0 53 0 0 11410 0 11410 -53 0 -53 0 -18 83 c-9 45 -24 111 -31 147 -8 36 -28
155 -45 264 -36 232 -53 305 -92 401 -54 129 -79 206 -104 323 -34 161 -48
202 -109 317 -29 55 -65 143 -80 195 -52 180 -64 211 -119 298 -34 54 -70 130
-95 198 -45 129 -46 131 -115 232 -29 43 -70 119 -91 170 -21 52 -61 126 -88
165 -57 83 -83 132 -127 239 -17 42 -46 96 -64 120 -57 74 -85 124 -122 219
-21 50 -51 112 -69 138 -17 25 -45 66 -62 91 -17 25 -48 88 -69 140 -21 53
-66 136 -100 186 -35 51 -79 132 -99 180 -20 49 -65 132 -100 184 -35 52 -79
136 -99 185 -20 50 -64 130 -97 178 -34 49 -78 130 -99 183 -21 53 -67 139
-103 192 -35 54 -79 134 -97 180 -32 80 -58 127 -131 234 -20 29 -55 98 -78
153 -23 55 -52 114 -64 131 -66 93 -98 148 -133 234 -21 52 -66 136 -100 186
-34 51 -79 133 -100 184 -21 51 -59 122 -84 159 -53 75 -78 121 -125 232 -18
42 -57 113 -88 156 -30 43 -74 123 -96 178 -23 55 -70 143 -105 195 -35 52
-81 138 -102 190 -21 52 -63 130 -92 173 -30 43 -67 109 -84 145 -64 145 -80
176 -117 226 -45 60 -77 122 -116 221 -15 39 -48 99 -74 135 -66 92 -74 106
-110 195 -38 92 -72 155 -113 206 -16 20 -54 91 -84 160 -31 68 -76 153 -102
188 -25 36 -70 118 -98 182 -29 65 -79 157 -112 206 -32 48 -74 126 -92 172
-19 47 -64 130 -100 185 -37 56 -84 143 -105 194 -21 51 -66 134 -100 185 -33
51 -81 139 -104 196 -24 56 -64 131 -89 164 -26 34 -72 120 -104 191 -32 71
-76 152 -97 180 -48 63 -60 86 -115 214 -25 57 -62 127 -84 156 -45 59 -70
105 -117 216 -17 43 -55 111 -84 152 -28 41 -73 125 -100 186 -27 62 -73 147
-103 189 -29 43 -64 103 -77 133 -53 123 -93 198 -134 256 -24 34 -63 108 -87
164 -24 56 -63 130 -87 164 -41 57 -88 147 -144 276 -13 30 -43 80 -66 111
-47 65 -76 119 -123 232 -18 43 -52 104 -75 137 -50 66 -70 103 -124 229 -21
49 -60 119 -86 155 -26 36 -68 115 -94 174 -26 59 -74 148 -107 197 -32 50
-74 128 -93 175 -33 80 -59 127 -129 227 -16 23 -49 88 -72 144 -24 55 -71
142 -105 193 -33 51 -76 130 -95 177 -18 46 -62 127 -97 180 -35 52 -84 142
-109 200 -24 57 -69 140 -99 184 -30 44 -77 130 -103 191 -27 61 -70 140 -95
176 -43 60 -72 116 -123 238 -10 25 -43 81 -73 125 -30 44 -77 130 -103 190
-26 61 -71 143 -100 184 -28 40 -72 121 -98 180 -25 58 -72 142 -104 186 -32
44 -77 118 -101 165 -24 47 -66 114 -95 150 -28 35 -75 105 -105 155 -29 49
-77 117 -106 150 -29 33 -76 92 -104 130 -29 39 -63 79 -75 90 -12 11 -57 61
-98 110 -42 50 -90 101 -107 115 -16 13 -76 67 -132 120 -218 204 -281 259
-368 318 -49 34 -119 85 -155 113 -36 28 -99 68 -141 90 -42 22 -100 60 -130
86 -50 43 -82 60 -261 141 -36 17 -90 48 -120 69 -65 48 -121 72 -262 113 -60
17 -161 58 -225 90 -125 62 -130 64 -360 110 -85 17 -186 40 -225 51 -329 91
-381 100 -748 119 -131 7 -3814 10 -11156 10 -9549 0 -10970 2 -11036 15 -82
15 -135 39 -233 102 -35 23 -98 53 -140 69 -43 15 -102 36 -130 46 -29 11 -74
34 -100 52 -89 60 -138 84 -250 121 -79 26 -137 53 -202 94 -88 57 -150 84
-261 116 -55 16 -97 37 -210 109 -34 21 -106 53 -159 71 -113 38 -161 61 -243
117 -36 25 -107 57 -182 83 -120 41 -183 72 -259 126 -21 16 -89 45 -150 65
-151 50 -188 67 -266 119 -39 26 -120 64 -197 93 -122 45 -157 63 -268 134
-22 14 -98 45 -167 68 -70 22 -151 56 -180 75 -128 79 -160 95 -268 131 -75
25 -140 54 -187 85 -98 65 -102 66 -238 113 -85 30 -147 59 -209 99 -61 40
-118 67 -185 89 -112 35 -163 60 -262 124 -44 28 -110 58 -174 79 -119 38
-168 62 -246 116 -34 23 -104 56 -180 82 -134 47 -172 64 -235 107 -62 42
-112 65 -225 104 -122 42 -140 50 -200 92 -66 46 -133 77 -245 114 -68 22
-129 51 -191 91 -66 42 -126 70 -215 100 -87 29 -149 58 -206 95 -90 58 -140
81 -251 115 -41 12 -98 37 -128 56 -30 18 -78 48 -108 66 -30 19 -87 44 -128
57 -88 27 -185 75 -253 124 -32 23 -87 48 -150 68 -136 41 -211 74 -265 113
-59 43 -109 67 -195 95 -112 36 -185 69 -247 112 -68 45 -93 57 -241 108 -67
24 -137 57 -186 89 -80 53 -147 83 -267 119 -40 12 -104 43 -147 72 -106 68
-137 83 -253 119 -77 23 -123 46 -192 91 -66 44 -119 70 -196 95 -121 39 -162
59 -255 121 -41 27 -107 57 -176 80 -127 42 -146 51 -237 111 -42 28 -111 60
-190 87 -137 48 -143 50 -241 113 -42 28 -119 63 -196 90 -83 28 -160 64 -224
103 -65 40 -142 75 -228 105 -84 30 -155 62 -203 94 -70 45 -116 67 -269 125
-38 15 -101 49 -142 77 -71 48 -130 73 -281 118 -43 13 -107 44 -163 81 -68
43 -126 70 -216 100 -90 30 -144 55 -202 94 -71 48 -119 71 -254 120 -25 9
-95 46 -155 81 -63 38 -139 74 -179 86 -123 36 -201 69 -275 116 -40 26 -131
70 -203 100 -72 29 -165 75 -206 102 -84 55 -104 63 -271 115 -78 24 -134 49
-175 76 -83 57 -120 75 -232 115 -61 22 -130 57 -182 92 -88 59 -115 71 -246
108 -92 25 -138 47 -233 111 -45 30 -100 55 -167 76 -115 35 -148 51 -249 116
-40 27 -116 63 -167 81 -97 34 -144 58 -241 123 -31 21 -105 54 -165 74 -122
41 -148 53 -253 118 -50 31 -120 61 -217 92 -113 36 -162 58 -234 105 -66 42
-125 69 -215 99 -85 29 -148 57 -199 90 -102 67 -119 75 -244 116 -74 23 -134
51 -183 83 -97 64 -115 72 -243 115 -67 22 -136 54 -175 80 -110 72 -118 76
-218 108 -113 35 -145 51 -247 117 -51 33 -112 61 -191 87 -85 28 -145 55
-218 101 -55 34 -125 70 -156 79 -106 33 -202 75 -268 118 -91 59 -94 60 -224
105 -131 44 -157 57 -242 115 -38 26 -104 56 -176 80 -134 46 -162 59 -252
119 -45 30 -107 58 -192 87 -86 28 -148 57 -198 89 -97 64 -115 72 -243 115
-78 27 -137 55 -204 98 -67 44 -121 69 -195 93 -114 35 -142 49 -237 112 -38
25 -108 58 -165 77 -141 48 -170 62 -255 117 -45 29 -115 63 -175 83 -120 40
-187 72 -276 129 -41 27 -116 60 -192 86 -89 31 -151 60 -215 100 -63 41 -125
70 -215 100 -89 31 -151 60 -215 100 -62 40 -124 69 -203 96 -129 43 -155 55
-218 100 -63 46 -109 67 -233 109 -74 25 -138 55 -202 96 -65 42 -125 70 -192
92 -113 36 -152 54 -242 114 -41 27 -111 59 -186 85 -136 46 -149 53 -245 115
-42 27 -117 61 -187 85 -112 39 -155 60 -266 130 -26 17 -103 51 -172 75 -142
49 -162 59 -250 118 -42 28 -108 58 -192 86 -94 31 -150 57 -213 98 -59 40
-120 68 -208 99 -68 23 -143 54 -166 68 -22 15 -66 42 -96 61 -30 19 -106 51
-169 71 -85 28 -139 53 -210 99 -72 46 -123 70 -201 94 -117 36 -177 64 -263
122 -32 22 -100 55 -150 73 -138 49 -164 61 -250 116 -43 28 -116 63 -160 79
-137 46 -189 70 -257 114 -87 58 -90 59 -211 99 -132 44 -148 51 -241 113 -46
31 -109 61 -160 78 -136 44 -184 66 -269 122 -58 38 -114 64 -191 89 -123 39
-153 53 -220 101 -67 47 -110 67 -227 104 -68 22 -128 49 -177 81 -94 62 -156
92 -219 109 -75 20 -150 55 -237 111 -53 33 -116 62 -196 88 -147 49 -175 61
-237 104 -72 49 -85 55 -235 109 -82 30 -161 66 -202 93 -71 47 -140 79 -253
115 -86 28 -112 41 -195 95 -69 46 -128 72 -251 111 -43 13 -110 46 -152 74
-102 66 -115 72 -242 114 -70 23 -135 53 -180 82 -81 53 -162 92 -257 123 -38
13 -102 45 -143 72 -98 64 -138 84 -210 104 -146 41 -176 55 -275 121 -36 24
-114 62 -175 84 -60 22 -150 65 -200 95 -98 59 -113 65 -260 120 -55 21 -139
62 -187 92 -66 41 -125 67 -237 103 -104 34 -168 61 -208 88 -78 53 -121 74
-247 121 -63 24 -132 59 -171 86 -67 48 -128 74 -275 119 -58 17 -115 44 -177
84 -50 32 -113 67 -140 76 -26 10 -78 29 -115 42 -36 14 -92 43 -123 65 -75
52 -138 83 -210 104 -78 23 -172 65 -227 103 -64 44 -115 67 -219 102 -90 31
-183 76 -256 126 -19 12 -55 30 -81 40 -168 62 -237 93 -312 140 -61 38 -126
67 -220 99 -104 35 -154 58 -218 101 -63 42 -115 67 -215 101 -102 34 -152 58
-220 103 -64 44 -111 66 -175 85 -121 36 -156 52 -247 113 -58 39 -107 61
-180 83 -145 44 -191 64 -276 120 -47 31 -115 63 -175 84 -138 46 -169 61
-247 112 -37 25 -96 55 -130 68 -34 13 -96 35 -137 50 -41 15 -114 52 -161 82
-56 35 -134 71 -224 103 -93 33 -163 66 -216 100 -53 35 -120 67 -213 99 -91
32 -161 65 -213 99 -88 57 -119 71 -250 113 -56 18 -116 46 -155 73 -86 59
-125 77 -253 120 -77 27 -135 54 -194 94 -64 42 -117 66 -214 99 -96 32 -153
59 -216 100 -58 37 -122 68 -200 95 -131 45 -153 56 -235 111 -35 24 -119 62
-201 92 -92 34 -168 69 -217 102 -41 27 -95 56 -119 65 -24 9 -88 32 -142 51
-56 20 -130 56 -176 87 -55 35 -121 66 -215 99 -94 33 -160 64 -216 101 -56
36 -118 66 -206 96 -69 24 -145 55 -168 69 -22 15 -65 42 -95 60 -29 19 -107
52 -171 73 -85 29 -142 56 -206 98 -62 40 -123 69 -203 96 -129 44 -150 54
-241 114 -40 26 -111 59 -184 84 -135 47 -155 56 -246 116 -36 24 -111 59
-170 80 -116 40 -203 80 -252 117 -47 35 -80 50 -203 92 -128 44 -147 53 -236
112 -42 28 -113 60 -192 88 -141 49 -147 51 -239 113 -42 28 -111 59 -192 87
-69 23 -145 55 -168 70 -24 14 -67 41 -96 60 -30 19 -107 51 -171 73 -84 28
-141 54 -204 95 -64 42 -120 68 -208 97 -137 46 -152 53 -253 118 -43 29 -108
59 -161 76 -125 40 -169 60 -255 116 -48 31 -119 64 -195 91 -137 48 -178 67
-244 115 -47 33 -123 66 -245 105 -60 20 -114 47 -221 113 -33 20 -98 48 -145
62 -138 41 -262 81 -302 98 -37 16 -38 18 -38 66 l0 50 -339 0 -340 0 -3 -52z
m1278 -3787 c22 -10 62 -35 89 -55 64 -49 104 -69 206 -102 99 -31 158 -60
248 -119 40 -27 108 -58 174 -80 122 -40 158 -57 255 -119 37 -24 110 -58 162
-76 136 -46 189 -69 242 -107 56 -40 144 -81 254 -117 45 -15 108 -43 140 -63
114 -70 164 -94 261 -127 113 -38 145 -54 228 -110 37 -25 108 -57 185 -83 69
-24 146 -57 173 -73 26 -17 68 -43 95 -60 26 -16 104 -49 174 -74 94 -32 149
-58 211 -99 59 -40 111 -65 182 -88 114 -36 175 -65 259 -122 35 -23 105 -55
174 -79 129 -44 163 -60 260 -122 46 -30 112 -58 212 -90 98 -32 167 -61 217
-92 88 -55 176 -95 269 -123 41 -13 112 -48 173 -86 75 -47 136 -75 225 -105
90 -30 143 -54 203 -95 58 -38 115 -66 190 -91 125 -42 173 -65 265 -127 36
-25 97 -55 135 -67 103 -34 160 -62 246 -118 77 -50 95 -58 258 -106 61 -18
112 -43 175 -84 49 -33 123 -72 164 -87 141 -52 189 -75 264 -124 55 -36 109
-59 208 -91 88 -27 160 -58 213 -90 114 -68 148 -84 265 -124 62 -22 139 -59
190 -91 86 -54 127 -73 248 -116 35 -12 103 -48 152 -79 99 -63 99 -64 255
-113 84 -26 133 -49 203 -95 59 -39 121 -70 174 -87 96 -31 156 -61 247 -120
41 -27 108 -58 176 -80 125 -42 144 -51 235 -111 40 -27 113 -60 190 -87 137
-48 163 -60 248 -115 67 -43 100 -58 242 -108 58 -20 130 -53 160 -74 78 -53
119 -72 255 -120 76 -27 144 -59 190 -90 75 -51 160 -87 269 -115 37 -10 93
-34 125 -53 31 -19 81 -50 111 -69 30 -19 92 -45 138 -59 111 -34 144 -49 239
-112 56 -37 113 -63 187 -87 122 -40 163 -59 251 -119 42 -30 103 -57 188 -85
92 -31 149 -58 217 -101 65 -42 125 -70 204 -96 125 -41 159 -57 247 -114 54
-35 121 -64 293 -126 28 -10 82 -39 120 -64 74 -48 188 -100 266 -120 43 -11
103 -42 215 -112 28 -17 102 -50 165 -73 71 -26 148 -63 200 -97 87 -56 111
-67 259 -113 54 -17 117 -47 179 -87 67 -42 126 -70 197 -93 116 -38 162 -59
249 -119 41 -28 102 -56 176 -80 130 -43 167 -60 255 -120 42 -30 103 -57 188
-85 68 -23 151 -58 183 -78 116 -71 144 -84 266 -129 68 -24 146 -59 173 -76
97 -61 155 -89 252 -122 112 -38 150 -55 213 -101 58 -42 134 -76 241 -108 55
-17 114 -45 162 -76 104 -68 125 -78 244 -117 74 -24 131 -51 196 -93 65 -42
121 -69 192 -92 116 -37 178 -66 255 -121 35 -24 101 -54 180 -82 140 -48 145
-50 244 -115 47 -31 116 -62 199 -90 69 -24 153 -59 184 -79 111 -68 159 -91
266 -128 59 -20 133 -52 165 -72 112 -69 162 -93 259 -126 114 -38 150 -56
214 -102 51 -37 131 -73 237 -105 69 -21 100 -37 228 -118 28 -18 104 -50 169
-71 85 -29 142 -55 209 -99 64 -41 122 -69 191 -91 114 -37 176 -66 259 -123
34 -23 108 -56 180 -81 136 -48 144 -52 239 -113 40 -26 120 -63 195 -89 126
-45 152 -57 265 -127 32 -19 93 -48 135 -63 42 -15 100 -36 127 -46 28 -10 90
-43 137 -73 57 -36 127 -68 205 -95 118 -41 152 -58 253 -124 30 -20 109 -54
177 -77 83 -27 146 -56 195 -88 99 -65 121 -76 234 -112 70 -21 129 -50 201
-94 64 -41 133 -74 185 -91 124 -39 176 -63 253 -115 45 -30 113 -62 190 -89
131 -46 184 -70 230 -105 44 -33 120 -69 205 -98 121 -40 162 -58 220 -97 79
-53 120 -72 255 -120 66 -23 144 -59 175 -80 79 -54 128 -77 254 -120 76 -26
138 -56 194 -93 54 -36 113 -65 170 -83 122 -39 176 -63 265 -122 55 -36 113
-62 195 -89 87 -28 140 -53 205 -96 68 -44 121 -68 232 -106 103 -35 164 -62
216 -96 40 -28 125 -69 194 -95 119 -45 153 -62 267 -132 32 -20 122 -56 201
-82 91 -30 164 -60 197 -83 67 -45 141 -82 255 -126 50 -19 130 -60 180 -91
63 -40 119 -66 190 -87 148 -45 170 -55 269 -119 52 -33 129 -71 178 -89 103
-36 140 -54 233 -116 47 -30 104 -56 170 -77 116 -36 148 -50 250 -118 42 -27
84 -51 93 -54 181 -51 255 -80 330 -129 48 -32 134 -75 214 -107 73 -29 167
-74 208 -101 47 -30 129 -67 213 -98 89 -32 168 -69 224 -105 58 -36 128 -69
205 -95 136 -47 142 -49 229 -108 43 -29 110 -60 195 -89 84 -29 158 -63 214
-98 112 -70 108 -68 236 -110 72 -24 132 -51 168 -76 79 -56 121 -76 254 -122
80 -27 142 -57 200 -95 58 -38 120 -67 200 -95 132 -45 147 -52 242 -113 40
-26 118 -62 187 -86 129 -46 182 -70 228 -104 49 -36 113 -65 244 -111 70 -25
144 -59 171 -78 70 -51 135 -81 257 -122 72 -24 136 -54 191 -89 83 -54 154
-84 289 -125 40 -12 103 -42 140 -67 89 -59 143 -85 228 -113 86 -28 125 -47
219 -109 44 -29 110 -59 162 -76 119 -39 183 -68 241 -108 67 -48 98 -63 230
-108 68 -24 145 -59 184 -84 93 -60 107 -67 244 -115 70 -24 147 -59 185 -84
92 -60 100 -64 249 -117 82 -30 160 -65 200 -92 90 -60 78 -54 227 -107 82
-30 160 -65 201 -93 92 -60 111 -69 236 -110 77 -26 134 -53 200 -95 69 -45
124 -71 215 -101 90 -30 145 -56 208 -97 60 -40 120 -68 201 -96 132 -44 152
-54 243 -115 42 -27 110 -58 184 -84 132 -44 164 -60 251 -118 40 -27 106 -56
196 -86 75 -25 163 -62 195 -82 110 -68 160 -92 255 -126 110 -40 131 -50 223
-111 48 -31 107 -57 197 -86 93 -30 151 -56 204 -91 100 -65 113 -71 242 -114
75 -24 137 -53 185 -84 97 -64 120 -75 229 -111 96 -32 150 -59 230 -116 26
-20 97 -50 170 -75 140 -46 157 -54 249 -116 42 -27 110 -58 184 -84 135 -45
158 -56 239 -111 61 -41 88 -54 252 -114 55 -20 125 -53 155 -74 77 -52 89
-57 237 -111 76 -27 158 -65 190 -87 84 -57 145 -85 258 -120 63 -20 122 -46
160 -72 88 -60 137 -83 263 -125 74 -24 137 -53 187 -86 80 -52 148 -89 164
-89 35 0 194 -71 272 -121 68 -43 121 -68 194 -90 114 -36 169 -62 250 -118
31 -22 87 -50 123 -62 122 -39 216 -82 285 -127 42 -28 122 -65 215 -99 94
-34 173 -71 222 -102 41 -27 120 -65 175 -85 55 -20 118 -43 141 -51 22 -9 77
-39 121 -68 56 -38 114 -65 194 -91 131 -44 143 -50 244 -116 51 -33 114 -61
198 -89 138 -46 211 -90 252 -153 60 -90 56 22 56 -1745 1 -1797 6 -1661 -64
-1703 -66 -41 -138 -22 -276 74 -105 73 -124 82 -274 132 -93 31 -145 55 -192
89 -74 52 -120 74 -261 119 -70 23 -121 47 -166 80 -71 50 -145 85 -223 106
-73 19 -151 55 -206 94 -64 47 -113 71 -195 96 -110 34 -161 58 -248 115 -56
37 -115 65 -189 90 -121 40 -155 56 -242 114 -42 29 -103 55 -202 87 -109 35
-164 59 -230 101 -49 30 -128 71 -178 90 -97 38 -188 84 -275 139 -31 19 -106
50 -170 70 -141 43 -182 60 -241 100 -67 47 -133 78 -229 109 -102 33 -142 53
-230 111 -42 28 -110 59 -190 87 -88 30 -152 59 -217 101 -54 34 -135 74 -197
96 -64 23 -140 61 -198 98 -65 43 -123 70 -193 92 -115 37 -148 53 -244 115
-42 27 -119 62 -194 89 -83 28 -157 63 -218 100 -70 44 -127 69 -241 106 -106
35 -168 61 -216 93 -85 57 -125 76 -241 117 -60 21 -126 55 -185 95 -66 44
-114 67 -171 84 -155 44 -197 61 -254 100 -74 50 -141 84 -211 105 -109 34
-166 61 -243 112 -58 39 -113 64 -202 94 -90 30 -148 57 -215 100 -62 40 -124
70 -189 91 -109 35 -178 68 -269 127 -35 22 -93 51 -130 63 -129 42 -212 79
-280 124 -42 28 -119 64 -207 95 -88 32 -167 69 -216 100 -76 49 -161 86 -291
129 -36 12 -92 40 -123 62 -81 56 -136 82 -251 118 -71 22 -125 47 -180 83
-89 58 -152 87 -239 113 -72 20 -127 48 -220 110 -47 30 -104 56 -170 77 -115
35 -168 61 -261 123 -43 29 -105 57 -178 81 -127 42 -156 55 -248 117 -40 27
-104 57 -165 77 -132 44 -188 70 -260 119 -34 23 -109 59 -170 80 -152 55
-179 68 -246 113 -70 48 -132 76 -251 113 -55 18 -117 47 -165 78 -89 59 -149
87 -251 117 -86 26 -133 48 -198 94 -65 47 -92 59 -216 100 -77 26 -135 54
-200 96 -66 44 -121 70 -201 96 -127 42 -140 48 -242 114 -51 34 -107 60 -177
81 -112 35 -163 58 -263 122 -38 24 -121 62 -186 86 -72 25 -156 65 -214 101
-69 42 -132 71 -222 101 -87 28 -152 57 -212 95 -97 61 -140 80 -259 118 -49
16 -121 50 -170 80 -112 71 -128 78 -245 115 -61 20 -125 49 -165 75 -106 70
-130 82 -235 116 -117 38 -152 55 -243 116 -40 27 -102 56 -157 73 -125 41
-168 61 -258 119 -48 32 -113 62 -175 83 -115 38 -176 64 -217 94 -64 47 -125
76 -248 118 -87 31 -152 61 -206 96 -52 35 -122 67 -212 100 -149 53 -161 59
-239 111 -62 42 -116 66 -239 107 -46 15 -107 42 -135 60 -28 17 -71 44 -95
59 -23 15 -99 46 -168 70 -90 31 -147 58 -207 98 -53 35 -119 67 -184 90 -115
40 -165 64 -243 116 -66 46 -103 62 -204 89 -88 24 -151 55 -238 114 -40 28
-103 56 -177 81 -131 44 -145 50 -241 112 -42 28 -120 63 -193 89 -138 48
-159 58 -254 119 -38 25 -117 61 -184 84 -126 44 -162 60 -223 102 -61 42
-131 74 -225 105 -100 33 -145 54 -222 106 -60 41 -118 67 -239 105 -43 13
-110 46 -152 74 -104 67 -121 75 -246 116 -82 26 -132 50 -198 94 -63 41 -117
67 -188 90 -115 38 -174 65 -265 125 -36 24 -103 55 -150 70 -117 38 -181 68
-270 124 -41 26 -100 56 -130 66 -122 39 -218 80 -270 115 -74 50 -115 69
-250 120 -73 27 -142 62 -192 96 -63 43 -104 61 -220 98 -100 32 -158 56 -193
82 -63 45 -144 86 -215 108 -109 34 -166 61 -245 113 -46 30 -117 66 -165 82
-125 43 -156 57 -234 111 -77 52 -99 62 -252 110 -71 22 -126 47 -185 86 -46
30 -104 62 -129 71 -117 42 -222 91 -293 136 -50 32 -115 61 -180 82 -150 48
-196 68 -279 122 -41 27 -103 59 -139 72 -144 52 -196 76 -269 126 -74 50
-119 69 -276 114 -43 13 -102 41 -147 70 -103 68 -107 69 -243 116 -86 30
-144 57 -205 97 -54 36 -121 69 -187 93 -103 36 -147 59 -250 127 -29 20 -99
50 -155 68 -116 37 -154 55 -246 116 -38 25 -108 58 -166 78 -125 42 -161 59
-255 118 -42 26 -123 63 -180 83 -120 42 -182 72 -262 127 -36 24 -103 54
-177 78 -153 51 -162 55 -253 116 -58 40 -108 62 -203 93 -99 32 -146 54 -217
101 -68 45 -116 68 -198 94 -119 38 -151 52 -219 101 -59 42 -112 68 -181 89
-111 35 -167 60 -249 114 -58 38 -117 66 -190 89 -121 40 -158 58 -250 119
-38 25 -109 58 -166 78 -130 44 -168 61 -231 101 -74 47 -122 71 -195 96 -83
28 -208 88 -288 138 -39 25 -114 57 -191 81 -102 33 -144 53 -213 100 -69 47
-112 67 -214 100 -102 33 -146 53 -216 100 -61 42 -112 67 -170 85 -46 14 -90
25 -98 25 -23 0 -129 54 -202 104 -43 29 -101 56 -160 75 -121 38 -180 64
-236 105 -64 46 -100 64 -214 102 -97 33 -147 57 -259 126 -32 20 -106 52
-165 72 -108 37 -163 64 -258 124 -28 18 -111 54 -186 81 -85 30 -159 64 -199
91 -76 51 -156 88 -274 125 -53 17 -112 45 -150 70 -85 59 -128 79 -253 121
-75 25 -136 53 -199 94 -63 41 -125 71 -200 96 -127 43 -140 49 -240 114 -52
34 -112 61 -190 86 -108 35 -136 49 -263 129 -30 19 -102 50 -160 70 -104 35
-155 59 -256 123 -27 18 -102 50 -165 72 -113 41 -161 63 -273 132 -31 20
-115 55 -185 79 -83 29 -148 58 -189 86 -85 58 -121 75 -252 118 -75 25 -136
53 -177 81 -88 60 -133 81 -252 120 -74 24 -130 50 -196 93 -60 39 -121 69
-177 86 -134 43 -172 60 -261 117 -55 37 -120 67 -193 92 -105 36 -137 52
-265 132 -30 19 -84 44 -120 54 -101 31 -189 70 -254 112 -76 50 -97 61 -176
87 -117 40 -194 74 -250 112 -80 53 -121 72 -248 114 -76 25 -136 52 -180 82
-80 54 -134 79 -265 123 -61 20 -125 50 -165 77 -92 62 -121 75 -247 117 -67
22 -133 52 -170 77 -87 58 -160 94 -245 119 -89 26 -109 36 -222 107 -55 35
-116 64 -165 78 -121 35 -173 58 -242 104 -85 56 -123 75 -203 99 -98 31 -166
61 -228 102 -74 50 -122 73 -205 100 -111 36 -164 60 -248 113 -45 29 -125 66
-185 87 -148 52 -173 63 -239 108 -81 55 -103 65 -231 107 -74 24 -137 53
-187 85 -99 65 -113 72 -235 114 -59 21 -134 56 -171 80 -92 61 -131 80 -234
111 -103 32 -152 55 -250 119 -39 26 -105 58 -147 71 -112 35 -142 49 -240
111 -54 34 -131 71 -196 94 -136 48 -151 55 -243 113 -50 31 -122 63 -205 91
-143 48 -175 62 -244 112 -26 19 -108 57 -181 85 -156 59 -163 63 -249 121
-42 28 -101 55 -166 76 -174 55 -209 94 -200 222 6 96 37 185 93 269 59 87 84
139 118 241 32 100 53 144 108 225 25 36 58 108 83 181 46 133 57 158 112 242
42 65 57 98 103 230 17 52 58 138 91 192 33 55 76 147 99 211 40 114 67 169
127 264 18 28 53 108 78 178 25 70 67 163 94 208 27 44 61 113 76 152 38 102
59 132 107 156 52 26 99 26 153 2z m53289 -23181 c18 -11 40 -36 49 -55 15
-31 16 -653 16 -7952 0 -5158 4 -7975 10 -8081 14 -223 27 -276 110 -451 38
-82 70 -154 70 -160 0 -27 72 -151 121 -206 29 -33 75 -91 102 -128 31 -43 79
-90 131 -129 44 -34 103 -81 130 -105 65 -58 116 -87 217 -124 46 -16 134 -55
194 -85 76 -37 136 -60 195 -71 80 -16 931 -18 13740 -23 10255 -4 13661 -8
13680 -16 35 -17 75 -63 89 -103 8 -25 11 -432 11 -1500 0 -1376 -1 -1468 -18
-1501 -9 -19 -32 -45 -50 -57 l-34 -22 -3296 -4 c-3065 -3 -3307 -4 -3432 -20
-167 -22 -275 -48 -406 -99 -56 -21 -162 -54 -236 -72 -163 -41 -186 -51 -282
-114 -41 -27 -119 -66 -172 -87 -69 -27 -121 -56 -179 -100 -45 -35 -120 -86
-165 -114 -98 -61 -179 -132 -384 -336 -181 -179 -296 -312 -349 -403 -22 -37
-56 -87 -76 -112 -64 -79 -82 -109 -132 -223 -27 -62 -64 -135 -83 -162 -58
-87 -76 -131 -116 -284 -21 -82 -55 -190 -74 -241 -47 -121 -73 -223 -94 -373
-16 -112 -17 -282 -17 -2052 0 -2049 -1 -2019 47 -2230 11 -49 40 -142 64
-206 23 -63 59 -176 78 -251 35 -138 60 -199 117 -283 17 -26 46 -82 64 -124
52 -122 74 -161 130 -231 28 -36 72 -96 97 -135 25 -38 74 -101 109 -140 35
-38 77 -88 93 -110 51 -69 228 -245 290 -288 33 -22 92 -70 131 -106 39 -36
100 -84 135 -105 36 -22 98 -65 140 -96 41 -31 98 -66 125 -77 131 -56 190
-85 248 -127 72 -51 132 -77 237 -100 85 -19 200 -54 277 -85 81 -32 219 -68
308 -80 209 -29 447 -31 3575 -31 3113 0 3216 -1 3250 -19 20 -10 44 -36 57
-61 l23 -43 0 -1479 c0 -1444 0 -1480 -19 -1517 -11 -21 -32 -47 -48 -57 -27
-19 -88 -19 -2335 -24 l-2307 -5 -28 -21 c-15 -12 -36 -35 -46 -52 -17 -29
-18 -102 -18 -1522 0 -1420 1 -1493 18 -1522 10 -17 31 -40 46 -52 l28 -21
2307 -5 c2247 -5 2308 -5 2335 -24 16 -10 37 -36 48 -57 18 -37 19 -65 19
-756 0 -724 -8 -977 -35 -1107 -9 -41 -41 -127 -79 -206 -35 -74 -76 -165 -91
-202 -30 -75 -68 -136 -115 -188 -18 -19 -56 -67 -85 -106 -52 -70 -70 -87
-215 -204 -115 -94 -181 -134 -266 -165 -44 -15 -126 -52 -184 -80 -128 -64
-196 -81 -370 -95 -93 -8 -1131 -10 -3370 -8 l-3235 3 -50 25 c-73 36 -93 79
-111 235 -20 175 -46 295 -104 475 -55 177 -71 234 -100 378 -21 106 -52 198
-114 337 -19 44 -51 141 -70 215 -38 151 -55 194 -115 295 -26 43 -60 129 -91
225 -37 115 -64 179 -105 249 -31 52 -76 144 -101 206 -26 66 -67 144 -99 190
-30 43 -63 101 -74 129 -41 109 -72 169 -129 249 -33 45 -78 118 -100 162 -22
45 -66 114 -97 155 -31 41 -74 109 -96 150 -21 42 -67 112 -102 155 -35 44
-84 114 -110 155 -26 41 -65 95 -87 120 -22 25 -68 86 -102 135 -34 50 -81
110 -103 135 -23 25 -63 74 -90 110 -27 36 -78 97 -114 136 -36 39 -118 129
-181 200 -141 158 -522 539 -694 694 -71 63 -163 147 -205 186 -42 39 -92 81
-111 95 -19 13 -62 49 -95 80 -34 30 -94 78 -135 106 -41 28 -104 77 -140 108
-36 31 -101 78 -145 103 -44 26 -102 65 -130 87 -68 56 -131 97 -190 128 -27
14 -81 51 -120 82 -38 31 -115 78 -170 105 -55 26 -127 69 -160 95 -33 26
-110 71 -172 100 -62 30 -141 74 -175 98 -77 54 -101 66 -203 102 -92 32 -166
68 -244 119 -30 20 -91 47 -135 62 -150 48 -221 77 -282 115 -89 56 -138 76
-286 113 -92 24 -169 51 -250 90 -122 59 -204 83 -373 111 -55 10 -143 31
-195 47 -369 114 -341 108 -765 173 -93 15 -289 48 -435 75 -361 65 -386 68
-872 85 -387 14 -469 14 -855 0 -236 -8 -453 -18 -483 -21 -57 -6 -271 -41
-420 -69 -160 -30 -490 -84 -576 -95 -131 -16 -274 -47 -397 -86 -247 -76
-305 -93 -382 -109 -144 -28 -222 -54 -343 -110 -65 -30 -156 -64 -202 -75
-187 -44 -214 -54 -302 -108 -114 -68 -129 -74 -281 -116 -121 -33 -172 -55
-275 -120 -29 -18 -96 -50 -150 -71 -53 -22 -128 -59 -165 -84 -111 -75 -137
-89 -234 -126 -55 -22 -122 -58 -165 -90 -40 -29 -109 -72 -153 -95 -90 -48
-142 -82 -201 -132 -22 -18 -80 -53 -128 -78 -48 -25 -116 -68 -150 -96 -33
-27 -95 -73 -136 -101 -42 -28 -105 -75 -140 -106 -36 -30 -98 -76 -139 -102
-41 -26 -97 -68 -125 -95 -28 -26 -76 -65 -107 -87 -60 -41 -134 -108 -417
-374 -98 -91 -204 -190 -237 -220 -68 -63 -194 -194 -375 -394 -69 -76 -156
-172 -195 -214 -76 -84 -180 -212 -263 -324 -29 -40 -83 -110 -120 -156 -37
-47 -93 -123 -124 -170 -31 -47 -77 -112 -101 -143 -25 -31 -65 -94 -90 -140
-25 -46 -71 -116 -101 -156 -31 -40 -76 -115 -102 -165 -25 -51 -61 -110 -79
-132 -50 -62 -78 -112 -120 -215 -21 -52 -65 -133 -96 -180 -34 -49 -73 -125
-94 -180 -20 -52 -57 -131 -84 -175 -71 -118 -78 -134 -122 -278 -24 -77 -60
-167 -87 -217 -66 -119 -88 -178 -123 -315 -16 -66 -54 -176 -84 -245 -53
-125 -75 -199 -116 -385 -12 -55 -46 -176 -75 -270 -56 -174 -94 -353 -113
-529 -14 -128 -37 -172 -106 -206 l-50 -25 -2365 -3 c-2237 -2 -2367 -1 -2400
15 -20 10 -44 35 -57 58 l-23 40 0 19880 c0 19330 1 19881 19 19915 10 19 33
45 51 58 l33 22 1500 0 c1486 0 1500 0 1532 -20z m19160 6 c176 -19 217 -30
310 -80 44 -24 130 -62 191 -86 66 -25 130 -57 157 -79 244 -194 364 -313 451
-450 27 -42 68 -101 91 -131 48 -63 69 -100 123 -220 21 -47 59 -113 84 -147
25 -34 67 -113 93 -175 26 -63 72 -149 103 -193 31 -44 77 -130 103 -191 26
-62 70 -143 99 -183 29 -40 73 -120 97 -179 25 -59 72 -146 105 -193 32 -47
78 -132 103 -192 24 -58 61 -130 82 -159 59 -81 78 -115 118 -216 21 -51 56
-119 79 -150 65 -90 75 -108 120 -216 23 -56 63 -132 89 -168 26 -36 66 -106
88 -155 61 -135 71 -152 121 -220 25 -35 60 -98 78 -141 45 -110 85 -186 130
-246 22 -29 58 -97 81 -152 23 -54 70 -142 105 -195 36 -53 81 -137 100 -185
39 -97 58 -132 117 -212 21 -29 60 -103 86 -165 26 -62 73 -149 105 -194 32
-46 73 -122 92 -169 37 -91 38 -92 119 -219 29 -44 69 -120 89 -170 21 -49 65
-133 100 -185 34 -52 79 -135 99 -183 20 -49 61 -123 91 -166 30 -43 77 -129
103 -192 27 -63 74 -150 105 -194 30 -44 74 -124 96 -178 23 -53 55 -119 73
-145 18 -26 45 -66 61 -89 15 -22 48 -89 72 -147 24 -59 62 -130 83 -159 56
-74 87 -130 122 -223 17 -45 58 -119 90 -165 32 -46 78 -131 103 -189 24 -58
69 -141 100 -185 31 -44 72 -120 93 -170 41 -100 61 -135 118 -212 22 -29 59
-100 82 -157 25 -59 72 -146 107 -198 38 -55 77 -129 97 -181 18 -48 47 -109
65 -135 18 -26 46 -67 63 -92 17 -25 46 -81 63 -125 35 -88 69 -151 110 -205
38 -49 71 -112 105 -200 16 -41 58 -117 93 -169 36 -52 83 -140 107 -197 23
-56 62 -131 87 -166 50 -70 83 -131 122 -226 14 -35 51 -101 81 -147 31 -46
76 -129 100 -185 25 -56 57 -120 73 -143 76 -111 91 -139 128 -227 22 -52 70
-138 106 -190 35 -53 73 -118 83 -145 36 -101 66 -159 117 -227 30 -41 68
-112 93 -173 24 -58 70 -144 104 -195 34 -49 78 -132 99 -183 20 -50 64 -132
97 -182 34 -49 79 -133 100 -185 22 -52 67 -135 100 -185 34 -49 81 -135 104
-190 24 -55 65 -131 92 -170 26 -38 62 -101 79 -140 67 -148 91 -192 137 -255
27 -37 65 -109 86 -162 30 -75 51 -111 98 -164 86 -98 99 -166 42 -226 -17
-17 -44 -31 -77 -38 -37 -8 -3439 -10 -12102 -8 l-12050 3 -37 25 c-21 14 -43
41 -52 63 -14 34 -15 803 -15 7114 0 6731 1 7078 17 7112 10 20 33 46 52 58
l34 23 7831 0 c6652 0 7851 -3 7961 -14z m-62359 -3202 c22 -10 43 -32 55 -55
19 -39 19 -74 19 -3125 0 -2983 0 -3088 -18 -3123 -11 -22 -35 -44 -62 -58
l-43 -23 -4966 2 c-4730 3 -4968 4 -4998 21 -46 25 -68 63 -66 113 2 51 7 61
72 142 31 40 62 94 82 145 39 103 61 147 112 222 23 33 60 107 82 165 50 126
66 157 118 235 23 33 60 107 82 165 50 126 66 157 118 235 23 33 60 107 82
165 50 126 66 157 118 235 23 33 60 107 82 165 50 126 66 157 118 234 22 33
55 98 74 145 52 132 71 170 123 251 27 41 63 111 80 155 46 120 67 162 121
248 28 42 66 119 86 170 43 112 60 147 118 237 25 38 62 111 81 162 44 113 61
148 119 238 25 38 62 111 81 162 44 113 61 148 119 238 25 38 62 111 81 162
44 113 61 148 119 238 25 38 62 111 81 162 44 113 61 148 119 238 25 38 62
111 81 162 45 115 67 160 109 218 19 25 58 97 88 161 40 82 72 133 114 179 32
36 80 93 107 127 26 34 66 74 89 90 22 15 78 60 124 99 84 72 152 111 251 145
31 11 93 39 137 63 100 54 194 84 300 95 44 5 1452 9 3128 10 2805 1 3052 0
3083 -15z m7510 -16 c27 -14 80 -53 116 -86 37 -33 90 -78 120 -100 29 -22 69
-56 88 -77 19 -20 64 -60 100 -88 36 -27 94 -78 130 -112 36 -34 94 -85 130
-112 36 -28 81 -68 100 -88 19 -21 69 -63 110 -95 41 -32 89 -72 105 -90 17
-18 64 -58 106 -90 87 -65 293 -238 384 -321 33 -31 98 -87 145 -125 47 -37
101 -84 120 -103 19 -18 67 -57 105 -86 39 -29 86 -70 105 -90 19 -20 69 -64
110 -98 41 -33 98 -82 125 -108 28 -26 77 -69 110 -95 33 -26 87 -73 121 -103
33 -31 106 -94 163 -141 217 -179 258 -214 319 -271 34 -32 86 -76 115 -97 28
-22 77 -63 107 -92 30 -28 89 -78 130 -110 41 -32 89 -72 105 -90 17 -18 64
-59 105 -93 41 -33 98 -82 125 -108 28 -26 86 -76 130 -112 44 -35 87 -72 95
-82 8 -10 58 -52 110 -93 52 -42 119 -99 150 -126 68 -62 248 -213 333 -280
34 -26 91 -76 127 -110 36 -34 90 -81 120 -103 30 -22 71 -57 90 -78 19 -20
69 -64 110 -98 41 -33 102 -87 135 -118 33 -32 78 -71 100 -87 22 -16 72 -58
111 -93 64 -58 138 -121 362 -308 43 -35 106 -89 141 -120 35 -31 86 -73 115
-94 28 -21 78 -64 111 -96 33 -32 87 -78 120 -104 33 -25 80 -66 105 -92 25
-26 79 -73 120 -105 41 -32 93 -77 115 -100 22 -23 65 -61 95 -83 30 -22 82
-66 115 -97 33 -31 93 -83 134 -115 40 -32 106 -87 145 -122 39 -36 134 -111
211 -168 187 -140 215 -166 215 -208 0 -40 -40 -83 -91 -97 -22 -7 -2023 -10
-5685 -10 l-5651 0 -43 23 c-27 14 -51 36 -62 58 -18 35 -18 140 -18 3123 0
3047 0 3086 19 3124 40 78 -155 72 2126 69 l2040 -2 51 -27z m26359 -1159 c38
-11 79 -35 197 -117 37 -26 103 -55 195 -86 91 -31 160 -62 204 -90 89 -59
126 -77 253 -121 59 -21 136 -56 170 -77 96 -60 167 -95 232 -113 83 -25 148
-55 229 -107 66 -43 188 -98 217 -98 26 -1 149 -59 197 -93 69 -50 111 -70
230 -107 74 -24 129 -49 190 -89 94 -61 130 -79 235 -111 83 -26 155 -61 217
-106 25 -18 66 -42 90 -52 58 -25 103 -64 123 -106 15 -32 16 -797 16 -9831 0
-8646 -2 -9799 -15 -9824 -8 -16 -30 -39 -48 -50 l-34 -21 -1500 0 -1500 0
-33 23 c-18 12 -41 38 -51 57 -18 34 -19 334 -19 10523 l0 10488 21 40 c14 29
32 46 62 60 49 22 67 23 122 8z m-12050 -8428 c38 -19 149 -125 475 -453 234
-236 718 -723 1076 -1083 487 -489 657 -666 675 -702 l24 -48 0 -1995 0 -1995
-23 -33 c-48 -66 6 -63 -929 -60 l-848 3 -58 28 c-74 37 -97 72 -137 211 -39
136 -43 143 -107 243 -29 44 -69 121 -89 170 -23 55 -60 119 -99 171 -35 45
-84 124 -109 175 -26 51 -68 120 -95 152 -26 33 -70 93 -98 133 -27 39 -76
100 -109 135 -33 34 -85 94 -116 132 -76 94 -382 405 -438 445 -25 17 -80 63
-122 101 -42 38 -101 86 -130 106 -29 20 -78 59 -109 87 -30 28 -96 73 -145
100 -49 27 -122 73 -163 103 -40 30 -118 75 -174 99 -56 24 -138 69 -184 99
-48 32 -111 64 -151 76 -37 11 -103 32 -147 45 -44 14 -123 49 -175 79 -106
60 -187 85 -360 110 -63 9 -167 33 -230 52 -308 96 -318 98 -556 113 -402 27
-763 23 -1129 -11 -106 -10 -252 -42 -332 -74 -78 -30 -215 -65 -320 -80 -178
-26 -251 -49 -359 -110 -54 -30 -137 -67 -184 -81 -47 -14 -114 -35 -149 -45
-37 -12 -99 -44 -150 -78 -47 -32 -122 -75 -166 -95 -44 -20 -112 -61 -151
-91 -38 -30 -104 -70 -145 -90 -132 -64 -140 -69 -202 -126 -34 -30 -88 -74
-119 -97 -31 -23 -78 -62 -105 -88 -26 -25 -79 -70 -118 -99 -110 -84 -348
-326 -480 -490 -27 -33 -73 -84 -102 -114 -30 -30 -77 -88 -105 -130 -27 -42
-66 -96 -86 -120 -19 -24 -62 -91 -94 -149 -32 -58 -82 -134 -110 -169 -29
-38 -68 -105 -94 -163 -23 -55 -64 -132 -90 -172 -59 -92 -86 -153 -109 -248
-31 -134 -75 -194 -165 -231 -30 -12 -1425 -14 -9830 -14 -9613 0 -9796 0
-9843 19 -66 26 -110 80 -137 169 -12 40 -30 100 -41 135 -10 35 -45 104 -77
155 -32 51 -73 128 -91 172 -39 92 -47 107 -117 197 -28 36 -70 104 -92 150
-23 45 -59 106 -81 133 -22 28 -64 86 -94 130 -30 44 -90 119 -133 167 -44 47
-128 142 -189 210 -130 146 -264 278 -360 355 -38 31 -97 82 -130 113 -33 31
-85 73 -115 93 -30 20 -82 61 -115 91 -33 30 -100 76 -148 102 -49 25 -117 68
-151 94 -68 52 -135 89 -220 120 -30 12 -94 48 -143 81 -85 58 -122 73 -303
124 -30 8 -80 29 -110 45 -179 98 -209 107 -495 159 -61 11 -158 36 -215 55
-230 75 -271 82 -655 106 -225 14 -470 12 -755 -5 -334 -21 -353 -24 -617
-111 -58 -19 -174 -46 -257 -59 -197 -32 -242 -46 -356 -110 -92 -52 -129 -66
-311 -119 -61 -18 -106 -40 -159 -77 -40 -29 -112 -70 -159 -92 -47 -22 -124
-68 -171 -103 -47 -34 -129 -83 -181 -107 -66 -30 -116 -62 -156 -99 -32 -30
-85 -74 -118 -97 -33 -24 -87 -69 -120 -101 -33 -31 -94 -82 -135 -113 -80
-59 -187 -166 -365 -367 -60 -68 -142 -157 -181 -199 -39 -42 -95 -112 -124
-156 -29 -44 -70 -100 -90 -125 -20 -25 -59 -87 -86 -137 -26 -51 -74 -125
-106 -165 -36 -45 -71 -104 -93 -158 -20 -47 -60 -124 -91 -171 -65 -104 -78
-133 -115 -267 -40 -142 -64 -176 -149 -216 -45 -21 -53 -21 -896 -24 l-850
-3 -35 23 c-19 13 -42 39 -51 58 -17 33 -18 203 -18 3113 0 3329 -4 3113 52
3165 14 13 38 27 54 32 16 4 8648 8 19609 7 l19580 -2 50 -24z m-32760 -6381
c169 -15 242 -35 362 -97 59 -31 131 -63 159 -73 96 -33 161 -70 235 -133 41
-34 103 -84 137 -111 35 -27 88 -82 119 -123 30 -41 74 -96 98 -123 55 -62 87
-117 119 -203 14 -37 48 -112 76 -167 91 -182 105 -253 105 -550 0 -297 -23
-421 -104 -564 -16 -28 -48 -99 -71 -158 -42 -110 -64 -146 -157 -259 -29 -35
-72 -89 -96 -119 -23 -30 -73 -77 -109 -105 -36 -27 -97 -75 -135 -106 -73
-61 -136 -96 -223 -124 -30 -10 -107 -44 -170 -76 -142 -72 -224 -89 -470 -96
-183 -6 -336 6 -444 33 -32 9 -111 41 -175 73 -64 32 -134 64 -156 71 -70 22
-138 61 -208 119 -38 31 -99 79 -135 106 -36 28 -86 75 -110 105 -24 30 -75
93 -112 139 -63 76 -116 168 -134 231 -4 14 -37 84 -72 155 -75 151 -90 211
-104 414 -11 162 0 401 25 516 9 41 40 120 74 190 33 66 71 149 85 184 35 86
69 143 125 205 25 28 68 81 95 117 28 36 81 90 119 120 38 30 97 78 131 107
61 54 156 108 231 132 22 7 91 39 153 71 124 64 199 84 357 98 144 12 255 12
380 1z m28796 0 c166 -16 241 -36 363 -98 61 -32 146 -70 189 -85 80 -29 147
-72 259 -165 133 -111 161 -137 201 -191 22 -31 69 -89 103 -129 47 -55 72
-97 104 -175 23 -56 67 -151 96 -212 74 -150 85 -205 91 -475 4 -179 2 -248
-11 -337 -18 -119 -26 -145 -86 -263 -20 -41 -56 -123 -79 -182 -39 -99 -102
-202 -145 -237 -9 -8 -42 -49 -72 -93 -41 -58 -79 -96 -147 -148 -51 -38 -117
-90 -147 -115 -58 -47 -117 -79 -212 -113 -31 -12 -107 -46 -170 -75 -62 -30
-133 -60 -158 -65 -160 -37 -511 -40 -695 -8 -70 13 -116 29 -210 76 -66 33
-151 71 -189 85 -88 32 -123 53 -221 135 -44 36 -104 83 -133 104 -29 21 -78
73 -109 115 -31 42 -75 96 -98 121 -52 56 -86 115 -119 204 -15 38 -48 112
-75 165 -27 53 -56 118 -65 145 -60 178 -61 672 -1 851 9 28 34 82 54 120 21
39 57 117 81 174 46 110 84 174 143 237 19 22 56 67 81 101 25 34 73 83 106
110 34 26 98 79 143 116 91 76 122 94 235 137 42 16 120 51 173 78 57 30 125
56 170 66 149 32 375 43 550 26z m-4816 -3201 c75 -14 124 -38 161 -81 28 -32
40 -62 93 -243 12 -40 40 -100 67 -140 25 -38 75 -128 109 -200 35 -71 83
-154 107 -182 24 -29 68 -97 97 -152 29 -54 71 -120 93 -147 23 -27 61 -80 85
-119 25 -38 78 -104 117 -145 40 -41 85 -90 100 -109 114 -142 386 -420 471
-481 33 -23 89 -71 125 -105 36 -34 90 -79 120 -100 30 -21 78 -60 105 -86 32
-31 87 -66 155 -100 58 -28 137 -75 175 -104 39 -29 115 -75 170 -101 55 -26
127 -66 160 -89 85 -60 109 -71 236 -105 62 -17 169 -57 238 -89 126 -59 236
-90 376 -106 177 -20 300 -73 281 -120 -3 -9 -29 -27 -58 -40 -85 -38 -203
-57 -351 -56 -73 0 -5818 3 -12767 6 -8772 4 -12727 3 -12935 -5 -339 -11
-471 -4 -591 34 -117 37 -144 76 -81 114 46 29 122 48 277 72 170 26 218 39
360 105 63 29 167 68 230 86 133 37 153 46 238 106 34 25 98 60 141 78 112 48
136 61 226 125 44 32 112 74 152 95 39 20 98 60 130 89 32 28 92 76 133 106
41 29 89 67 105 84 17 18 68 62 115 100 99 80 377 359 458 461 31 39 83 98
116 132 32 34 79 93 104 130 25 37 67 95 94 127 28 33 71 103 98 155 26 53 73
129 104 168 35 45 74 112 101 174 24 56 66 135 94 178 59 90 71 117 106 241
14 51 33 106 41 121 30 58 86 96 174 115 75 17 19455 20 19545 3z m58938
-1605 c18 -9 44 -32 57 -52 l25 -36 3 -1490 c2 -1437 2 -1492 -16 -1526 -11
-19 -34 -45 -52 -57 l-33 -23 -3094 0 c-2822 0 -3098 1 -3129 16 -18 9 -43 31
-54 50 l-21 33 0 1495 c0 1288 2 1499 14 1523 18 34 44 59 77 72 16 6 1100 10
3107 10 2793 1 3085 0 3116 -15z m-35206 -4795 c36 -13 73 -47 84 -78 13 -32
12 -10991 0 -11023 -11 -29 -64 -76 -94 -83 -12 -3 -7202 -4 -15977 -3
l-15956 3 -49 25 c-71 36 -93 85 -111 243 -20 174 -39 257 -104 468 -32 103
-66 222 -75 265 -10 44 -26 117 -37 164 -10 47 -43 142 -73 213 -30 70 -67
171 -81 225 -54 199 -65 229 -119 327 -31 55 -65 129 -76 165 -63 200 -84 255
-120 310 -49 76 -77 132 -119 240 -18 47 -59 124 -90 172 -32 47 -72 121 -89
165 -51 124 -57 135 -111 208 -28 39 -72 109 -97 158 -25 48 -73 125 -107 170
-33 45 -78 116 -100 157 -21 41 -64 107 -95 145 -31 39 -72 95 -91 125 -18 30
-66 96 -105 145 -40 50 -91 119 -115 155 -23 36 -60 83 -80 105 -21 22 -60 70
-88 108 -50 67 -146 175 -297 337 -45 47 -102 110 -127 140 -68 82 -394 408
-463 465 -33 27 -94 81 -135 121 -177 169 -239 224 -310 276 -41 31 -86 68
-100 83 -14 15 -63 54 -110 88 -47 33 -114 85 -150 116 -62 54 -113 88 -210
144 -25 14 -69 46 -98 71 -29 25 -91 66 -137 91 -46 25 -113 70 -149 100 -36
29 -115 78 -175 109 -60 30 -136 75 -168 100 -32 25 -107 67 -168 94 -60 26
-147 73 -191 104 -45 30 -103 63 -130 73 -113 42 -192 78 -268 125 -47 28
-132 67 -201 91 -119 41 -156 57 -310 136 -44 22 -118 51 -165 63 -122 31
-273 82 -365 123 -89 40 -146 57 -315 92 -63 13 -200 51 -305 85 -194 62 -236
71 -725 151 -135 22 -276 46 -315 53 -353 68 -438 76 -1008 97 -239 8 -399 8
-650 0 -601 -21 -612 -22 -1082 -110 -88 -16 -236 -41 -330 -55 -347 -54 -450
-76 -639 -136 -103 -33 -255 -75 -336 -94 -101 -24 -194 -54 -292 -95 -80 -33
-198 -74 -264 -91 -113 -29 -170 -52 -329 -138 -39 -20 -131 -54 -208 -76
-108 -30 -157 -50 -220 -89 -45 -27 -140 -76 -211 -108 -74 -33 -154 -78 -188
-105 -54 -42 -94 -61 -250 -118 -25 -9 -82 -43 -127 -75 -44 -32 -118 -79
-164 -105 -46 -26 -111 -69 -144 -96 -32 -26 -100 -68 -149 -93 -49 -25 -116
-66 -149 -91 -33 -26 -94 -70 -135 -98 -41 -28 -109 -79 -150 -113 -41 -34
-111 -86 -155 -115 -44 -30 -102 -75 -130 -100 -27 -25 -79 -67 -115 -92 -36
-26 -90 -70 -121 -100 -31 -29 -121 -111 -199 -183 -322 -293 -389 -360 -695
-695 -71 -79 -160 -175 -196 -214 -36 -39 -88 -100 -115 -136 -27 -36 -68 -86
-91 -112 -23 -27 -64 -81 -91 -121 -28 -40 -71 -97 -96 -127 -26 -30 -76 -98
-110 -150 -35 -52 -82 -117 -105 -145 -23 -27 -60 -85 -82 -128 -22 -42 -66
-112 -98 -155 -32 -42 -82 -122 -110 -177 -29 -55 -72 -125 -95 -155 -51 -65
-69 -98 -111 -205 -17 -45 -57 -118 -87 -163 -31 -45 -70 -116 -88 -159 -52
-128 -87 -200 -120 -247 -41 -61 -62 -112 -105 -258 -23 -77 -52 -149 -78
-193 -66 -112 -87 -162 -113 -269 -34 -140 -49 -184 -105 -311 -48 -110 -69
-183 -110 -370 -12 -55 -46 -176 -75 -270 -60 -187 -90 -321 -104 -465 -14
-139 -28 -186 -64 -224 -65 -70 33 -66 -1685 -66 -1477 0 -1548 1 -1581 18
-22 12 -44 35 -57 62 l-23 44 0 5477 0 5476 23 43 c13 25 37 51 57 61 34 19
758 19 27112 19 19154 0 27085 -3 27105 -11z m-41082 -6399 c351 -17 544 -44
801 -115 71 -20 170 -42 219 -50 315 -52 358 -63 497 -127 71 -32 171 -67 277
-95 147 -39 178 -51 268 -104 64 -38 140 -73 208 -95 125 -40 140 -48 243
-118 44 -29 105 -63 136 -75 84 -31 133 -58 211 -115 39 -28 112 -73 163 -100
51 -27 117 -71 147 -97 31 -27 86 -67 124 -89 37 -22 97 -66 132 -96 35 -31
105 -84 154 -120 50 -35 110 -82 135 -105 25 -22 82 -72 127 -110 119 -101
464 -449 548 -554 40 -49 82 -99 95 -110 12 -11 50 -58 83 -105 34 -47 89
-118 123 -158 34 -40 79 -101 100 -135 21 -34 64 -93 95 -132 31 -38 77 -110
102 -160 25 -49 70 -122 99 -161 33 -44 72 -112 98 -175 25 -57 68 -139 97
-181 52 -75 74 -125 127 -278 15 -41 44 -104 66 -140 61 -100 76 -139 116
-292 20 -79 52 -177 71 -218 79 -169 81 -177 149 -550 8 -47 35 -164 59 -260
76 -303 100 -506 110 -935 7 -269 -7 -774 -26 -943 -11 -103 -71 -411 -113
-577 -13 -55 -39 -176 -55 -270 -38 -205 -58 -277 -115 -398 -26 -54 -59 -151
-81 -237 -41 -162 -56 -201 -121 -311 -24 -42 -62 -127 -84 -189 -26 -77 -56
-139 -94 -195 -30 -46 -67 -112 -82 -147 -44 -105 -73 -158 -129 -232 -29 -39
-72 -109 -94 -156 -22 -47 -65 -115 -94 -150 -29 -36 -76 -99 -104 -140 -28
-42 -72 -100 -98 -130 -26 -30 -73 -93 -105 -140 -33 -47 -75 -103 -95 -125
-20 -22 -59 -67 -87 -100 -167 -199 -365 -396 -613 -610 -44 -38 -93 -82 -110
-97 -16 -16 -68 -55 -115 -87 -47 -33 -114 -84 -150 -115 -35 -31 -85 -68
-110 -83 -25 -14 -81 -55 -125 -90 -43 -36 -123 -87 -176 -113 -53 -27 -125
-71 -160 -97 -87 -66 -102 -75 -194 -111 -44 -18 -121 -59 -170 -92 -64 -43
-120 -70 -195 -95 -58 -19 -136 -53 -175 -75 -127 -73 -175 -92 -328 -131 -98
-25 -188 -56 -257 -88 -128 -61 -167 -72 -389 -111 -96 -17 -238 -46 -315 -64
-366 -87 -464 -103 -712 -115 -381 -20 -595 -23 -851 -12 -365 15 -570 41
-812 102 -108 27 -286 65 -396 85 -228 40 -286 56 -421 119 -59 28 -151 59
-238 81 -161 40 -192 53 -296 118 -47 29 -113 58 -175 78 -119 37 -159 56
-245 116 -35 25 -111 66 -169 89 -70 29 -132 64 -185 104 -45 34 -121 81 -171
106 -49 25 -115 66 -145 92 -30 27 -93 73 -140 103 -47 30 -114 79 -150 109
-36 31 -90 73 -120 94 -30 21 -91 71 -135 110 -44 39 -100 86 -125 105 -95 71
-447 423 -536 535 -21 27 -66 80 -99 116 -33 36 -84 101 -114 145 -30 43 -77
106 -106 139 -29 33 -74 94 -101 135 -26 41 -71 103 -98 137 -28 33 -71 99
-95 145 -24 45 -65 112 -90 148 -70 98 -78 112 -112 197 -17 42 -56 116 -86
163 -63 96 -90 153 -121 255 -12 39 -42 106 -67 150 -71 125 -90 171 -124 302
-36 141 -44 163 -104 299 -52 117 -68 177 -101 374 -30 173 -50 268 -71 335
-85 274 -118 611 -119 1205 -1 594 18 791 114 1185 32 132 67 303 79 380 26
171 45 240 103 370 49 109 62 147 104 305 30 115 50 164 119 285 24 44 59 123
76 175 32 100 55 145 125 247 23 33 51 87 63 118 32 84 58 132 121 220 32 44
76 117 99 161 23 45 67 110 97 145 31 35 76 98 101 139 25 41 69 102 97 135
29 33 72 89 96 125 24 36 67 90 95 120 28 30 83 93 122 140 91 110 417 436
536 536 50 43 108 93 127 111 19 18 71 59 114 91 44 31 107 80 140 109 34 29
99 76 145 104 47 29 108 74 137 100 29 26 94 69 146 95 51 27 120 69 153 94
82 62 124 86 215 121 43 16 109 51 146 78 89 62 128 81 245 120 52 17 135 55
185 84 107 63 116 67 269 107 144 38 214 62 320 111 116 53 184 70 412 103 56
9 161 31 235 50 170 45 340 82 448 96 252 35 826 49 1225 30z m59380 -10 c233
-19 383 -46 685 -125 52 -13 141 -31 197 -40 197 -29 304 -56 396 -96 151 -67
205 -86 352 -124 119 -31 155 -45 239 -95 65 -39 141 -73 220 -100 111 -37
146 -54 258 -132 20 -14 82 -44 138 -68 55 -23 133 -66 172 -95 39 -29 115
-76 168 -105 53 -28 120 -71 148 -96 28 -24 82 -64 120 -87 39 -24 110 -76
159 -115 48 -39 125 -100 171 -134 45 -35 133 -106 195 -159 132 -113 503
-482 557 -554 21 -27 68 -84 104 -125 37 -41 91 -109 121 -150 29 -41 75 -100
101 -130 26 -30 71 -91 99 -135 29 -44 73 -105 99 -135 26 -30 68 -95 93 -145
25 -49 73 -128 107 -175 35 -49 78 -125 100 -180 22 -52 65 -133 96 -180 61
-93 78 -129 110 -236 12 -40 42 -107 66 -150 74 -132 91 -173 129 -319 22 -84
57 -184 87 -250 58 -127 79 -203 113 -405 26 -156 43 -234 99 -458 75 -297
106 -779 86 -1355 -15 -450 -29 -557 -130 -987 -21 -91 -48 -221 -60 -290 -32
-190 -54 -267 -111 -391 -34 -75 -65 -166 -91 -268 -21 -84 -44 -163 -50 -175
-6 -11 -32 -59 -59 -106 -27 -47 -68 -139 -92 -205 -30 -81 -63 -149 -103
-210 -33 -49 -76 -130 -96 -180 -22 -52 -61 -120 -92 -161 -30 -40 -77 -117
-105 -172 -27 -55 -74 -128 -104 -163 -29 -35 -74 -97 -100 -137 -26 -39 -64
-91 -86 -115 -21 -23 -68 -84 -104 -136 -37 -52 -81 -110 -99 -130 -18 -20
-58 -65 -87 -101 -30 -36 -89 -101 -130 -145 -42 -45 -103 -110 -136 -145 -58
-63 -211 -204 -419 -386 -54 -47 -129 -106 -167 -130 -37 -24 -91 -66 -121
-93 -29 -26 -91 -73 -138 -104 -47 -30 -109 -76 -139 -102 -30 -25 -98 -68
-151 -95 -54 -27 -127 -72 -164 -100 -37 -29 -98 -65 -134 -82 -37 -16 -87
-38 -112 -50 -25 -11 -76 -41 -115 -67 -58 -40 -186 -101 -210 -101 -20 0
-148 -58 -201 -91 -83 -53 -117 -66 -286 -109 -94 -24 -186 -56 -255 -88 -132
-61 -176 -74 -368 -107 -82 -14 -188 -35 -235 -46 -595 -138 -740 -154 -1400
-152 -527 1 -759 24 -1100 109 -118 29 -284 64 -368 78 -223 37 -270 50 -395
107 -65 30 -172 67 -255 90 -190 50 -192 51 -300 115 -56 34 -133 68 -195 88
-119 38 -172 64 -243 117 -28 22 -99 59 -158 84 -69 28 -135 64 -181 99 -41
31 -120 79 -175 108 -56 29 -128 76 -160 104 -31 28 -86 68 -121 89 -35 21
-100 68 -144 105 -44 37 -102 82 -130 100 -27 19 -83 64 -125 100 -41 36 -106
91 -145 122 -92 73 -440 421 -518 518 -33 41 -86 102 -117 135 -31 33 -80 96
-110 140 -29 44 -74 103 -100 132 -26 28 -73 91 -105 140 -32 48 -77 111 -101
140 -24 28 -68 97 -98 153 -31 56 -70 121 -88 143 -50 62 -64 87 -109 189 -22
51 -66 134 -99 183 -44 67 -69 119 -96 202 -22 69 -59 153 -95 215 -57 99 -79
158 -129 348 -13 47 -36 114 -52 150 -86 191 -98 231 -142 497 -14 81 -37 191
-51 243 -106 393 -129 619 -130 1250 0 608 18 797 115 1195 32 132 66 292 75
355 24 168 47 252 108 391 30 68 71 187 92 264 47 175 45 171 111 286 30 53
69 140 88 195 39 117 59 157 119 242 25 35 60 100 78 145 33 82 78 161 129
227 15 19 48 76 74 125 25 50 69 117 98 150 28 33 76 98 106 145 30 47 75 108
99 137 25 29 70 88 101 131 141 198 552 630 782 823 30 26 75 65 100 88 25 23
81 67 125 98 44 32 110 83 147 114 36 32 98 76 136 98 38 23 96 65 130 94 33
29 98 72 145 95 46 24 123 71 170 106 55 41 118 76 179 100 51 21 126 60 165
87 95 64 129 80 244 118 57 19 136 56 194 90 83 50 116 64 238 95 146 38 231
68 374 131 89 39 157 55 354 85 71 11 188 35 261 54 299 79 433 101 728 122
222 15 921 11 1135 -6z"/>
<path d="M64073 38529 c-30 -15 -48 -33 -63 -63 -20 -43 -20 -47 -21 -1515 0
-1441 1 -1473 20 -1516 12 -27 33 -52 53 -65 33 -20 39 -20 3129 -20 l3096 0
33 23 c19 12 42 36 52 53 18 30 19 96 19 1518 0 1466 -1 1486 -20 1525 -14 27
-34 45 -64 60 l-43 21 -3075 0 -3074 0 -42 -21z"/>
<path d="M14482 19333 c-37 -18 -66 -55 -76 -96 -3 -15 -6 -687 -6 -1494 l0
-1466 21 -45 c17 -34 32 -49 65 -63 41 -19 90 -19 1531 -17 l1488 3 34 24 c66
47 62 -57 62 1573 0 1398 -1 1482 -18 1517 -10 19 -33 46 -52 58 l-34 23
-1491 0 c-1353 0 -1494 -2 -1524 -17z"/>
<path d="M73659 19327 c-19 -12 -42 -39 -52 -58 -17 -35 -18 -119 -18 -1519 0
-1421 1 -1484 19 -1519 12 -23 34 -44 62 -58 l44 -23 1476 0 c1428 0 1476 1
1517 19 30 14 48 31 63 60 20 41 20 41 20 1521 0 1639 5 1525 -66 1574 l-39
26 -1496 0 -1496 0 -34 -23z"/>
<path d="M291935 54959 c-3523 -151 -6404 -1465 -8700 -3969 -550 -600 -1093
-1343 -1492 -2040 -1137 -1987 -1622 -4282 -1448 -6855 191 -2804 1189 -5233
2983 -7254 295 -333 770 -799 1112 -1092 1879 -1607 4203 -2515 6975 -2723
437 -33 664 -40 1245 -41 582 0 795 7 1225 40 2228 172 4220 824 5966 1952
983 636 1891 1447 2628 2348 173 211 168 203 145 224 -41 40 -1768 1344 -1783
1347 -9 2 -32 -16 -55 -44 -97 -118 -407 -451 -600 -644 -1597 -1601 -3441
-2567 -5566 -2917 -314 -52 -656 -91 -1065 -121 -371 -28 -1235 -23 -1675 11
-2323 175 -4262 965 -5905 2405 -314 275 -729 696 -1009 1023 -1273 1486
-2008 3246 -2190 5246 -35 380 -41 530 -41 1050 0 521 6 670 41 1045 137 1475
575 2833 1312 4060 921 1535 2251 2753 3937 3605 336 170 477 234 820 372 772
312 1610 529 2460 638 424 54 720 74 1205 82 1137 17 2188 -118 3205 -412
2009 -581 3707 -1734 5029 -3413 49 -62 93 -111 98 -110 21 7 1797 1374 1797
1383 1 6 -56 87 -126 181 -881 1173 -1943 2130 -3205 2887 -743 446 -1575 828
-2393 1097 -1146 377 -2329 584 -3655 640 -266 11 -1004 11 -1275 -1z"/>
<path d="M409863 49662 c-1954 -2919 -3603 -5386 -3666 -5482 -568 -877 -1037
-1704 -1372 -2420 -467 -998 -770 -2032 -875 -2985 -57 -525 -59 -1073 -4
-1595 151 -1446 768 -2856 1725 -3945 874 -995 2142 -1744 3489 -2064 790
-187 1673 -238 2515 -146 1184 131 2297 539 3310 1215 1098 733 1935 1742
2444 2947 464 1099 640 2377 506 3673 -88 840 -299 1584 -655 2305 -331 670
-735 1228 -1290 1785 -952 954 -2031 1530 -3305 1765 -389 72 -733 100 -1205
100 -401 -1 -554 -11 -900 -61 -406 -58 -972 -193 -1339 -319 -41 -14 -76 -24
-77 -22 -1 1 1381 2101 3073 4665 1691 2565 3073 4665 3071 4667 -17 16 -1867
1219 -1878 1221 -10 2 -1119 -1646 -3567 -5304z m1347 -6862 c862 -50 1610
-290 2293 -736 466 -305 937 -746 1278 -1199 541 -718 839 -1509 920 -2440 18
-205 15 -694 -5 -895 -101 -1010 -441 -1820 -1088 -2595 -189 -226 -523 -548
-768 -740 -838 -655 -1814 -985 -2915 -985 -1057 0 -2005 306 -2813 909 -208
155 -362 289 -572 500 -348 349 -596 669 -815 1056 -522 918 -707 2059 -519
3190 85 512 276 1051 530 1496 513 901 1401 1697 2324 2084 657 275 1401 398
2150 355z"/>
<path d="M427985 54959 c-1313 -74 -2475 -434 -3529 -1092 -622 -389 -1281
-969 -1786 -1572 -1027 -1227 -1614 -2708 -1765 -4455 -13 -151 -35 -519 -35
-587 l0 -23 1100 0 c978 0 1100 2 1100 15 0 9 9 104 20 213 200 1967 915 3392
2187 4355 117 88 378 261 502 331 146 84 438 223 595 285 472 185 932 290
1506 343 180 16 756 16 940 0 1085 -97 1968 -454 2770 -1121 142 -118 439
-408 569 -556 677 -767 1047 -1625 1131 -2620 13 -156 13 -624 0 -796 -78
-1016 -410 -1939 -1033 -2874 -602 -902 -1570 -2056 -3192 -3805 -2246 -2421
-8735 -9436 -8735 -9442 0 -4 3490 -8 7755 -8 l7755 0 0 1110 0 1110 -5260 2
-5259 3 2766 2985 c3467 3741 3402 3671 3914 4256 1394 1593 2277 2801 2759
3779 398 807 643 1656 734 2545 31 293 38 508 33 908 -5 389 -15 559 -53 842
-184 1395 -763 2616 -1755 3705 -1228 1349 -2784 2057 -4759 2165 -210 11
-766 11 -975 -1z"/>
<path d="M122145 54308 c-1317 -2783 -10739 -22728 -10742 -22740 -5 -17 60
-18 1273 -18 l1279 1 1785 3759 1785 3759 4915 1 4915 0 1795 -3760 1794
-3760 1229 0 1229 0 -5 22 c-3 11 -2399 5153 -5324 11425 l-5318 11403 -283 0
-283 0 -44 -92z m2285 -8948 c1046 -2230 1904 -4061 1907 -4067 4 -10 -777
-13 -3886 -13 -2140 0 -3891 3 -3891 6 0 6 3894 8215 3908 8238 3 5 17 -18 32
-50 15 -32 883 -1884 1930 -4114z"/>
<path d="M182530 53285 l0 -1115 2550 0 2550 0 0 -10310 0 -10310 1170 0 1170
0 0 10310 0 10310 2545 0 2545 0 0 1115 0 1115 -6265 0 -6265 0 0 -1115z"/>
<path d="M171210 48880 c-2109 -90 -3852 -782 -5365 -2129 -71 -63 -234 -219
-360 -346 -1376 -1375 -2235 -3007 -2539 -4821 -93 -553 -130 -1017 -130
-1624 0 -599 34 -1031 125 -1574 260 -1559 934 -2987 2010 -4256 457 -539 970
-1026 1484 -1408 1145 -851 2486 -1366 4000 -1537 424 -48 646 -59 1180 -59
507 -1 642 5 1045 45 1544 151 2905 658 4090 1523 1001 731 1949 1821 2583
2968 859 1553 1207 3324 1031 5253 -163 1800 -852 3446 -2033 4859 -336 402
-779 848 -1166 1172 -1313 1102 -2863 1740 -4610 1898 -408 37 -968 52 -1345
36z m1000 -2155 c1430 -131 2668 -692 3755 -1702 1281 -1191 2021 -2650 2189
-4318 39 -381 50 -920 26 -1260 -76 -1104 -376 -2091 -925 -3040 -472 -817
-1075 -1488 -1806 -2010 -832 -594 -1802 -981 -2829 -1129 -958 -139 -1978
-73 -2872 184 -813 235 -1589 635 -2238 1155 -1213 972 -2088 2486 -2364 4087
-147 853 -136 1789 30 2643 195 998 599 1905 1211 2718 198 262 380 473 633
731 1183 1208 2562 1851 4190 1956 201 13 795 4 1000 -15z"/>
<path d="M206480 48879 c-1654 -69 -3114 -579 -4378 -1529 -656 -493 -1269
-1111 -1807 -1824 l-120 -159 -3 1542 -2 1541 -1085 0 -1085 0 0 -11535 0
-11535 1085 0 1085 0 2 4529 3 4530 152 -177 c413 -483 888 -944 1353 -1317
1521 -1219 3267 -1825 5255 -1825 1899 0 3572 544 5028 1633 579 433 1141 968
1618 1542 1176 1412 1840 3063 1989 4945 115 1459 -83 2873 -575 4111 -439
1104 -1095 2083 -2009 2994 -1163 1161 -2461 1912 -3944 2284 -796 200 -1685
287 -2562 250z m633 -2109 c905 -55 1738 -274 2532 -665 1230 -607 2188 -1531
2878 -2777 478 -861 759 -1766 852 -2743 22 -230 31 -751 16 -990 -75 -1249
-472 -2410 -1196 -3505 -641 -968 -1479 -1721 -2502 -2247 -755 -388 -1470
-603 -2308 -694 -185 -20 -262 -23 -640 -24 -440 0 -548 6 -870 46 -933 117
-1835 432 -2695 942 -915 542 -1674 1290 -2197 2162 -537 895 -832 1824 -940
2955 -22 235 -25 1081 -5 1310 73 818 220 1458 485 2115 386 958 1025 1839
1857 2561 1089 943 2380 1462 3870 1553 200 12 666 12 863 1z"/>
<path d="M227215 48879 c-1800 -75 -3411 -659 -4806 -1740 -537 -416 -1116
-980 -1554 -1514 -1089 -1326 -1729 -2857 -1904 -4555 -40 -385 -46 -517 -46
-1025 0 -611 22 -939 96 -1450 280 -1930 1151 -3620 2590 -5030 1417 -1387
3044 -2174 4939 -2390 346 -39 551 -49 1020 -49 440 -1 598 5 900 35 1146 112
2209 439 3178 975 523 290 1044 657 1518 1070 363 316 823 789 1142 1172 l52
63 0 -1445 0 -1446 1075 0 1075 0 0 8450 0 8450 -1075 0 -1075 0 0 -1541 0
-1541 -109 145 c-494 660 -1035 1225 -1626 1698 -602 482 -1332 898 -2045
1166 -1017 383 -2146 552 -3345 502z m1170 -2119 c1567 -132 2850 -702 3977
-1766 779 -735 1369 -1631 1715 -2604 223 -627 352 -1295 394 -2040 15 -259 6
-872 -15 -1110 -110 -1206 -459 -2241 -1073 -3175 -354 -539 -807 -1033 -1315
-1438 -874 -695 -1942 -1187 -3023 -1392 -408 -77 -691 -105 -1141 -112 -573
-9 -986 30 -1504 141 -794 171 -1608 525 -2310 1004 -947 646 -1701 1526
-2250 2622 -435 869 -671 1733 -731 2680 -15 237 -7 807 15 1030 85 852 301
1620 672 2379 559 1146 1319 2034 2304 2691 977 652 2069 1020 3260 1099 172
12 854 6 1025 -9z"/>
<path d="M268730 48884 c-1235 -44 -2281 -243 -3314 -631 -303 -114 -521 -209
-851 -373 -737 -364 -1370 -785 -1960 -1301 -182 -159 -550 -524 -720 -714
-899 -1002 -1585 -2246 -1949 -3535 -309 -1092 -406 -2270 -285 -3450 181
-1770 867 -3315 2077 -4685 144 -163 639 -657 792 -791 1037 -909 2144 -1520
3423 -1890 695 -201 1393 -318 2237 -376 248 -17 1171 -17 1435 0 423 27 755
62 1120 118 1853 283 3508 1043 4783 2197 158 143 475 464 608 617 216 246
447 543 599 768 59 88 67 104 54 116 -17 17 -1704 1126 -1712 1126 -3 0 -47
-51 -99 -112 -367 -445 -762 -844 -1174 -1185 -960 -795 -2124 -1330 -3354
-1542 -510 -88 -907 -121 -1455 -121 -465 0 -785 22 -1200 81 -1342 191 -2557
724 -3566 1565 -170 142 -585 550 -726 714 -874 1021 -1445 2276 -1627 3575
-75 535 -86 1160 -30 1705 159 1549 797 2874 1929 4005 1070 1070 2341 1717
3850 1959 791 127 1683 138 2515 31 1498 -193 2772 -762 3856 -1721 310 -274
695 -685 962 -1026 65 -83 120 -144 126 -141 133 77 1716 1068 1716 1075 0 30
-279 451 -460 694 -533 715 -1165 1299 -1905 1763 -466 292 -1058 584 -1605
791 -1053 399 -2042 613 -3140 680 -174 11 -789 20 -950 14z"/>
<path d="M314355 48884 c-858 -33 -1558 -139 -2270 -344 -986 -284 -1903 -761
-2700 -1404 -324 -261 -804 -723 -1062 -1021 -1184 -1366 -1906 -2856 -2188
-4517 -97 -577 -130 -986 -130 -1643 0 -477 7 -618 46 -995 192 -1862 952
-3585 2251 -5102 1302 -1520 2981 -2393 5113 -2657 470 -59 780 -76 1375 -75
503 0 659 6 1030 40 1493 136 2783 586 3970 1384 1110 748 2003 1738 2762
3065 123 214 322 585 316 589 -13 11 -1840 967 -1842 964 -2 -2 -49 -79 -106
-173 -661 -1083 -1286 -1866 -1870 -2341 -932 -759 -2182 -1289 -3457 -1468
-311 -44 -502 -58 -874 -63 -704 -11 -1247 54 -1864 222 -1172 321 -2218 1014
-3069 2035 -626 750 -1083 1675 -1321 2673 -124 522 -202 1125 -217 1685 l-3
92 7590 0 7590 0 -2 142 c-27 1543 -338 2938 -923 4145 -645 1328 -1726 2567
-2960 3390 -1224 816 -2623 1265 -4250 1363 -176 11 -785 20 -935 14z m645
-2094 c641 -31 1212 -136 1800 -330 1146 -378 2136 -1015 2831 -1822 540 -627
952 -1427 1259 -2442 42 -141 130 -459 130 -472 0 -2 -2824 -4 -6275 -4 -4112
0 -6275 3 -6275 10 0 20 130 430 195 615 335 953 747 1711 1276 2346 130 156
434 462 603 605 923 785 1965 1260 3136 1428 446 65 888 87 1320 66z"/>
<path d="M336075 48883 c-2546 -75 -4658 -1205 -6292 -3367 l-113 -149 0 1542
0 1541 -1085 0 -1085 0 0 -11535 0 -11535 1085 0 1085 0 2 4526 3 4526 110
-128 c592 -696 1264 -1308 1940 -1767 1141 -775 2414 -1237 3775 -1371 568
-56 1205 -60 1760 -11 1828 163 3433 865 4827 2112 173 155 572 554 735 736
841 935 1440 1952 1817 3087 488 1468 592 3242 280 4805 -302 1512 -983 2854
-2063 4060 -250 279 -716 728 -1011 975 -1631 1362 -3568 2018 -5770 1953z
m735 -2128 c840 -77 1596 -289 2328 -650 1315 -648 2316 -1654 3007 -3020 429
-849 660 -1675 736 -2635 16 -199 16 -750 0 -950 -74 -947 -308 -1779 -741
-2635 -671 -1328 -1615 -2307 -2877 -2984 -753 -404 -1552 -647 -2423 -737
-210 -21 -803 -30 -1030 -15 -1066 70 -2059 371 -3004 908 -1308 743 -2255
1820 -2799 3183 -267 669 -414 1325 -479 2145 -27 345 -14 993 28 1405 167
1626 841 3020 2010 4160 1159 1130 2528 1732 4184 1840 208 13 856 4 1060 -15z"/>
<path d="M391846 48880 c-1145 -46 -2185 -247 -3166 -612 -1072 -399 -2050
-983 -2894 -1727 -186 -164 -569 -549 -730 -733 -1084 -1244 -1811 -2746
-2091 -4323 -160 -903 -184 -1872 -70 -2790 197 -1574 801 -2979 1810 -4210
373 -455 866 -949 1320 -1320 1447 -1185 3158 -1852 5155 -2010 486 -38 1221
-45 1685 -15 1085 69 2045 257 2935 576 1527 545 2815 1437 3761 2604 206 254
467 617 453 630 -16 13 -1703 1120 -1717 1126 -7 2 -54 -46 -113 -118 -251
-305 -586 -659 -859 -908 -924 -840 -1963 -1403 -3128 -1696 -479 -120 -979
-194 -1519 -225 -269 -15 -938 -6 -1183 15 -797 71 -1515 238 -2183 507 -1648
665 -2888 1842 -3642 3457 -527 1130 -735 2349 -615 3608 134 1399 659 2615
1594 3689 142 163 456 480 626 633 846 758 1800 1269 2890 1547 878 224 1875
295 2870 204 2037 -185 3687 -1044 4986 -2594 56 -66 230 -286 264 -333 2 -2
1721 1062 1733 1073 11 10 -280 453 -433 660 -405 549 -888 1043 -1405 1437
-695 529 -1549 967 -2545 1305 -894 303 -1771 474 -2735 533 -236 14 -809 20
-1054 10z"/>
<path d="M136580 40000 l0 -8450 2478 0 c2458 0 2959 6 3392 35 1666 115 2903
518 3780 1233 150 122 409 385 529 536 438 551 708 1203 820 1981 69 478 79
1059 25 1550 -145 1325 -748 2361 -1803 3096 -354 247 -876 515 -1311 674 -58
21 -108 41 -113 45 -4 3 19 17 50 30 99 40 315 144 424 205 147 82 395 248
524 351 141 112 388 359 495 494 300 378 522 850 634 1350 130 581 147 1265
45 1840 -151 859 -587 1664 -1247 2301 -626 605 -1544 980 -2737 1118 -491 57
-343 55 -3277 58 l-2708 4 0 -8451z m4710 6550 c902 -29 1325 -78 1586 -184
265 -108 546 -331 802 -636 366 -437 563 -917 628 -1532 22 -213 15 -645 -15
-838 -66 -429 -212 -788 -439 -1080 -92 -118 -327 -356 -447 -453 -246 -198
-518 -335 -780 -391 -244 -53 -572 -87 -1140 -117 -121 -7 -736 -13 -1457 -16
l-1248 -5 0 2631 0 2631 1098 0 c603 0 1239 -5 1412 -10z m1010 -7260 c846
-59 1522 -345 2043 -863 408 -407 666 -916 766 -1512 40 -237 46 -323 46 -650
-1 -274 -4 -344 -23 -485 -92 -675 -326 -1164 -772 -1611 -163 -163 -287 -263
-442 -355 -400 -237 -801 -325 -1803 -396 -104 -7 -717 -12 -1747 -15 l-1588
-4 0 2950 0 2951 1688 0 c1025 0 1744 -4 1832 -10z"/>
<path d="M149560 47505 l0 -945 2225 0 2225 0 0 -7505 0 -7505 1100 0 1100 0
0 7505 0 7505 2235 0 2235 0 0 945 0 945 -5560 0 -5560 0 0 -945z"/>
<path d="M241380 40000 l0 -8450 1095 0 1095 0 0 4070 0 4070 4900 0 4900 0 0
-4070 0 -4070 1095 0 1095 0 0 8450 0 8450 -1095 0 -1095 0 0 -3350 0 -3350
-4900 0 -4900 0 0 3350 0 3350 -1095 0 -1095 0 0 -8450z"/>
<path d="M349150 39999 l0 -8450 2728 4 c1817 3 2784 8 2897 15 352 23 487 34
714 58 1147 121 2095 405 2821 844 923 558 1503 1357 1759 2420 178 740 194
1695 41 2452 -81 400 -196 735 -371 1088 -328 659 -815 1195 -1484 1633 -333
217 -770 436 -1175 587 -63 23 -119 46 -123 50 -4 4 23 19 60 35 105 43 374
178 481 241 909 534 1447 1323 1626 2384 50 296 60 428 60 815 0 386 -9 505
-59 796 -120 682 -413 1318 -868 1884 -367 455 -726 754 -1197 994 -680 347
-1491 536 -2530 591 -123 6 -1153 10 -2787 10 l-2593 0 0 -8451z m4720 6551
c836 -26 1300 -76 1534 -164 500 -188 1032 -755 1280 -1361 251 -617 286
-1464 85 -2091 -107 -336 -265 -592 -538 -876 -199 -207 -401 -361 -621 -472
-210 -107 -376 -155 -675 -195 -516 -70 -1090 -91 -2532 -91 l-1053 0 0 2630
0 2630 1103 0 c606 0 1244 -5 1417 -10z m1185 -7274 c578 -73 1017 -224 1428
-493 156 -103 291 -215 447 -372 326 -327 533 -679 673 -1141 165 -542 179
-1273 36 -1857 -154 -634 -540 -1195 -1062 -1546 -335 -225 -726 -341 -1377
-406 -537 -54 -798 -61 -2412 -61 l-1438 0 0 2950 0 2951 1783 -4 c1631 -3
1794 -4 1922 -21z"/>
<path d="M364030 40000 l0 -8450 133 0 132 0 6150 6189 6150 6189 3 -6189 2
-6189 1090 0 1090 0 0 8450 0 8450 -92 -1 -93 0 -6190 -6238 -6190 -6237 -3
6238 -2 6238 -1090 0 -1090 0 0 -8450z"/>
</g>
</svg>
