<?xml version="1.0" encoding="utf-8"?>
<!-- Generator: Adobe Illustrator 27.5.0, SVG Export Plug-In . SVG Version: 6.00 Build 0)  -->
<svg version="1.1" id="Layer_1" xmlns="http://www.w3.org/2000/svg" xmlns:xlink="http://www.w3.org/1999/xlink" x="0px" y="0px"
	 viewBox="0 0 100 100" style="enable-background:new 0 0 100 100;" xml:space="preserve">
<g>
	<path d="M84.67,12.5H74.6V8.17c0-1.6-1.3-2.9-2.9-2.9h-0.43c-1.6,0-2.9,1.3-2.9,2.9v4.34H52.79V8.17c0-1.6-1.3-2.9-2.9-2.9h-0.43
		c-1.6,0-2.9,1.3-2.9,2.9v4.34H30.99V8.17c0-1.6-1.3-2.9-2.9-2.9h-0.43c-1.6,0-2.9,1.3-2.9,2.9v4.34H14.69
		c-5.39,0-9.77,4.38-9.77,9.77v56.54c0,5.39,4.38,9.77,9.77,9.77h48.97c2.79,2.21,6.31,3.54,10.14,3.54s7.35-1.33,10.14-3.54h0.74
		c5.39,0,9.77-4.38,9.77-9.77V22.27C94.44,16.89,90.05,12.5,84.67,12.5z M69.37,8.17c0-1.05,0.85-1.9,1.9-1.9h0.43
		c1.05,0,1.9,0.85,1.9,1.9v9.67c0,1.05-0.85,1.9-1.9,1.9h-0.43c-1.05,0-1.9-0.85-1.9-1.9V8.17z M47.56,8.17c0-1.05,0.85-1.9,1.9-1.9
		h0.43c1.05,0,1.9,0.85,1.9,1.9v9.67c0,1.05-0.85,1.9-1.9,1.9h-0.43c-1.05,0-1.9-0.85-1.9-1.9V8.17z M25.75,8.17
		c0-1.05,0.85-1.9,1.9-1.9h0.43c1.05,0,1.9,0.85,1.9,1.9v9.67c0,1.05-0.85,1.9-1.9,1.9h-0.43c-1.05,0-1.9-0.85-1.9-1.9V8.17z
		 M14.69,13.5h10.06v4.34c0,1.6,1.3,2.9,2.9,2.9h0.43c1.6,0,2.9-1.3,2.9-2.9V13.5h15.57v4.34c0,1.6,1.3,2.9,2.9,2.9h0.43
		c1.6,0,2.9-1.3,2.9-2.9V13.5h15.57v4.34c0,1.6,1.3,2.9,2.9,2.9h0.43c1.6,0,2.9-1.3,2.9-2.9V13.5h10.06c4.84,0,8.77,3.93,8.77,8.77
		v8.01H5.92v-8.01C5.92,17.44,9.85,13.5,14.69,13.5z M58.43,75.76c0-8.47,6.89-15.36,15.36-15.36s15.36,6.89,15.36,15.36
		s-6.89,15.36-15.36,15.36S58.43,84.23,58.43,75.76z M58.43,67.91v-4.36c0-0.64,0.52-1.16,1.16-1.16h4.36
		c0.13,0,0.25,0.03,0.36,0.06c-2.3,1.64-4.15,3.85-5.35,6.43C58.64,68.67,58.43,68.32,58.43,67.91z M88.64,68.95
		c-1.19-2.59-3.04-4.81-5.33-6.46c0.14-0.06,0.3-0.1,0.46-0.1h4.36c0.64,0,1.16,0.52,1.16,1.16v4.36
		C89.3,68.37,89.03,68.76,88.64,68.95z M85.1,87.56c3.11-2.98,5.05-7.16,5.05-11.8c0-2.08-0.41-4.06-1.12-5.89
		c0.75-0.34,1.27-1.09,1.27-1.96v-4.36c0-1.19-0.97-2.16-2.16-2.16h-4.36c-0.51,0-0.99,0.19-1.37,0.5
		c-2.51-1.56-5.46-2.48-8.62-2.48c-3.13,0-6.04,0.9-8.53,2.43c-0.37-0.28-0.83-0.44-1.31-0.44h-4.36c-1.19,0-2.16,0.97-2.16,2.16
		v4.36c0,0.81,0.45,1.53,1.14,1.9c-0.73,1.85-1.14,3.85-1.14,5.96c0,4.65,1.96,8.84,5.08,11.82H14.69c-4.84,0-8.77-3.93-8.77-8.77
		V31.28h87.52v47.53C93.44,83.5,89.73,87.33,85.1,87.56z"/>
	<path d="M15.57,35.22h-4.36c-1.19,0-2.16,0.97-2.16,2.16v4.36c0,1.19,0.97,2.16,2.16,2.16h4.36c1.19,0,2.16-0.97,2.16-2.16v-4.36
		C17.73,36.19,16.76,35.22,15.57,35.22z M16.73,41.74c0,0.64-0.52,1.16-1.16,1.16h-4.36c-0.64,0-1.16-0.52-1.16-1.16v-4.36
		c0-0.64,0.52-1.16,1.16-1.16h4.36c0.64,0,1.16,0.52,1.16,1.16V41.74z"/>
	<path d="M27.67,35.22H23.3c-1.19,0-2.16,0.97-2.16,2.16v4.36c0,1.19,0.97,2.16,2.16,2.16h4.36c1.19,0,2.16-0.97,2.16-2.16v-4.36
		C29.83,36.19,28.86,35.22,27.67,35.22z M28.83,41.74c0,0.64-0.52,1.16-1.16,1.16H23.3c-0.64,0-1.16-0.52-1.16-1.16v-4.36
		c0-0.64,0.52-1.16,1.16-1.16h4.36c0.64,0,1.16,0.52,1.16,1.16V41.74z"/>
	<path d="M39.76,35.22H35.4c-1.19,0-2.16,0.97-2.16,2.16v4.36c0,1.19,0.97,2.16,2.16,2.16h4.36c1.19,0,2.16-0.97,2.16-2.16v-4.36
		C41.92,36.19,40.96,35.22,39.76,35.22z M40.92,41.74c0,0.64-0.52,1.16-1.16,1.16H35.4c-0.64,0-1.16-0.52-1.16-1.16v-4.36
		c0-0.64,0.52-1.16,1.16-1.16h4.36c0.64,0,1.16,0.52,1.16,1.16V41.74z"/>
	<path d="M51.86,35.22H47.5c-1.19,0-2.16,0.97-2.16,2.16v4.36c0,1.19,0.97,2.16,2.16,2.16h4.36c1.19,0,2.16-0.97,2.16-2.16v-4.36
		C54.02,36.19,53.05,35.22,51.86,35.22z M53.02,41.74c0,0.64-0.52,1.16-1.16,1.16H47.5c-0.64,0-1.16-0.52-1.16-1.16v-4.36
		c0-0.64,0.52-1.16,1.16-1.16h4.36c0.64,0,1.16,0.52,1.16,1.16V41.74z"/>
	<path d="M63.95,35.22h-4.36c-1.19,0-2.16,0.97-2.16,2.16v4.36c0,1.19,0.97,2.16,2.16,2.16h4.36c1.19,0,2.16-0.97,2.16-2.16v-4.36
		C66.11,36.19,65.15,35.22,63.95,35.22z M65.11,41.74c0,0.64-0.52,1.16-1.16,1.16h-4.36c-0.64,0-1.16-0.52-1.16-1.16v-4.36
		c0-0.64,0.52-1.16,1.16-1.16h4.36c0.64,0,1.16,0.52,1.16,1.16V41.74z"/>
	<path d="M76.05,35.22h-4.36c-1.19,0-2.16,0.97-2.16,2.16v4.36c0,1.19,0.97,2.16,2.16,2.16h4.36c1.19,0,2.16-0.97,2.16-2.16v-4.36
		C78.21,36.19,77.24,35.22,76.05,35.22z M77.21,41.74c0,0.64-0.52,1.16-1.16,1.16h-4.36c-0.64,0-1.16-0.52-1.16-1.16v-4.36
		c0-0.64,0.52-1.16,1.16-1.16h4.36c0.64,0,1.16,0.52,1.16,1.16V41.74z"/>
	<path d="M88.14,35.22h-4.36c-1.19,0-2.16,0.97-2.16,2.16v4.36c0,1.19,0.97,2.16,2.16,2.16h4.36c1.19,0,2.16-0.97,2.16-2.16v-4.36
		C90.3,36.19,89.34,35.22,88.14,35.22z M89.3,41.74c0,0.64-0.52,1.16-1.16,1.16h-4.36c-0.64,0-1.16-0.52-1.16-1.16v-4.36
		c0-0.64,0.52-1.16,1.16-1.16h4.36c0.64,0,1.16,0.52,1.16,1.16V41.74z"/>
	<path d="M15.57,48.22h-4.36c-1.19,0-2.16,0.97-2.16,2.16v4.36c0,1.19,0.97,2.16,2.16,2.16h4.36c1.19,0,2.16-0.97,2.16-2.16v-4.36
		C17.73,49.19,16.76,48.22,15.57,48.22z M16.73,54.74c0,0.64-0.52,1.16-1.16,1.16h-4.36c-0.64,0-1.16-0.52-1.16-1.16v-4.36
		c0-0.64,0.52-1.16,1.16-1.16h4.36c0.64,0,1.16,0.52,1.16,1.16V54.74z"/>
	<path d="M27.67,48.22H23.3c-1.19,0-2.16,0.97-2.16,2.16v4.36c0,1.19,0.97,2.16,2.16,2.16h4.36c1.19,0,2.16-0.97,2.16-2.16v-4.36
		C29.83,49.19,28.86,48.22,27.67,48.22z M28.83,54.74c0,0.64-0.52,1.16-1.16,1.16H23.3c-0.64,0-1.16-0.52-1.16-1.16v-4.36
		c0-0.64,0.52-1.16,1.16-1.16h4.36c0.64,0,1.16,0.52,1.16,1.16V54.74z"/>
	<path d="M39.76,48.22H35.4c-1.19,0-2.16,0.97-2.16,2.16v4.36c0,1.19,0.97,2.16,2.16,2.16h4.36c1.19,0,2.16-0.97,2.16-2.16v-4.36
		C41.92,49.19,40.96,48.22,39.76,48.22z M40.92,54.74c0,0.64-0.52,1.16-1.16,1.16H35.4c-0.64,0-1.16-0.52-1.16-1.16v-4.36
		c0-0.64,0.52-1.16,1.16-1.16h4.36c0.64,0,1.16,0.52,1.16,1.16V54.74z"/>
	<path d="M51.86,48.22H47.5c-1.19,0-2.16,0.97-2.16,2.16v4.36c0,1.19,0.97,2.16,2.16,2.16h4.36c1.19,0,2.16-0.97,2.16-2.16v-4.36
		C54.02,49.19,53.05,48.22,51.86,48.22z M53.02,54.74c0,0.64-0.52,1.16-1.16,1.16H47.5c-0.64,0-1.16-0.52-1.16-1.16v-4.36
		c0-0.64,0.52-1.16,1.16-1.16h4.36c0.64,0,1.16,0.52,1.16,1.16V54.74z"/>
	<path d="M63.95,48.22h-4.36c-1.19,0-2.16,0.97-2.16,2.16v4.36c0,1.19,0.97,2.16,2.16,2.16h4.36c1.19,0,2.16-0.97,2.16-2.16v-4.36
		C66.11,49.19,65.15,48.22,63.95,48.22z M65.11,54.74c0,0.64-0.52,1.16-1.16,1.16h-4.36c-0.64,0-1.16-0.52-1.16-1.16v-4.36
		c0-0.64,0.52-1.16,1.16-1.16h4.36c0.64,0,1.16,0.52,1.16,1.16V54.74z"/>
	<path d="M76.05,48.22h-4.36c-1.19,0-2.16,0.97-2.16,2.16v4.36c0,1.19,0.97,2.16,2.16,2.16h4.36c1.19,0,2.16-0.97,2.16-2.16v-4.36
		C78.21,49.19,77.24,48.22,76.05,48.22z M77.21,54.74c0,0.64-0.52,1.16-1.16,1.16h-4.36c-0.64,0-1.16-0.52-1.16-1.16v-4.36
		c0-0.64,0.52-1.16,1.16-1.16h4.36c0.64,0,1.16,0.52,1.16,1.16V54.74z"/>
	<path d="M88.14,48.22h-4.36c-1.19,0-2.16,0.97-2.16,2.16v4.36c0,1.19,0.97,2.16,2.16,2.16h4.36c1.19,0,2.16-0.97,2.16-2.16v-4.36
		C90.3,49.19,89.34,48.22,88.14,48.22z M89.3,54.74c0,0.64-0.52,1.16-1.16,1.16h-4.36c-0.64,0-1.16-0.52-1.16-1.16v-4.36
		c0-0.64,0.52-1.16,1.16-1.16h4.36c0.64,0,1.16,0.52,1.16,1.16V54.74z"/>
	<path d="M15.57,61.39h-4.36c-1.19,0-2.16,0.97-2.16,2.16v4.36c0,1.19,0.97,2.16,2.16,2.16h4.36c1.19,0,2.16-0.97,2.16-2.16v-4.36
		C17.73,62.36,16.76,61.39,15.57,61.39z M16.73,67.91c0,0.64-0.52,1.16-1.16,1.16h-4.36c-0.64,0-1.16-0.52-1.16-1.16v-4.36
		c0-0.64,0.52-1.16,1.16-1.16h4.36c0.64,0,1.16,0.52,1.16,1.16V67.91z"/>
	<path d="M27.67,61.39H23.3c-1.19,0-2.16,0.97-2.16,2.16v4.36c0,1.19,0.97,2.16,2.16,2.16h4.36c1.19,0,2.16-0.97,2.16-2.16v-4.36
		C29.83,62.36,28.86,61.39,27.67,61.39z M28.83,67.91c0,0.64-0.52,1.16-1.16,1.16H23.3c-0.64,0-1.16-0.52-1.16-1.16v-4.36
		c0-0.64,0.52-1.16,1.16-1.16h4.36c0.64,0,1.16,0.52,1.16,1.16V67.91z"/>
	<path d="M39.76,61.39H35.4c-1.19,0-2.16,0.97-2.16,2.16v4.36c0,1.19,0.97,2.16,2.16,2.16h4.36c1.19,0,2.16-0.97,2.16-2.16v-4.36
		C41.92,62.36,40.96,61.39,39.76,61.39z M40.92,67.91c0,0.64-0.52,1.16-1.16,1.16H35.4c-0.64,0-1.16-0.52-1.16-1.16v-4.36
		c0-0.64,0.52-1.16,1.16-1.16h4.36c0.64,0,1.16,0.52,1.16,1.16V67.91z"/>
	<path d="M51.86,61.39H47.5c-1.19,0-2.16,0.97-2.16,2.16v4.36c0,1.19,0.97,2.16,2.16,2.16h4.36c1.19,0,2.16-0.97,2.16-2.16v-4.36
		C54.02,62.36,53.05,61.39,51.86,61.39z M53.02,67.91c0,0.64-0.52,1.16-1.16,1.16H47.5c-0.64,0-1.16-0.52-1.16-1.16v-4.36
		c0-0.64,0.52-1.16,1.16-1.16h4.36c0.64,0,1.16,0.52,1.16,1.16V67.91z"/>
	<path d="M15.57,74.39h-4.36c-1.19,0-2.16,0.97-2.16,2.16v4.36c0,1.19,0.97,2.16,2.16,2.16h4.36c1.19,0,2.16-0.97,2.16-2.16v-4.36
		C17.73,75.36,16.76,74.39,15.57,74.39z M16.73,80.91c0,0.64-0.52,1.16-1.16,1.16h-4.36c-0.64,0-1.16-0.52-1.16-1.16v-4.36
		c0-0.64,0.52-1.16,1.16-1.16h4.36c0.64,0,1.16,0.52,1.16,1.16V80.91z"/>
	<path d="M27.67,74.39H23.3c-1.19,0-2.16,0.97-2.16,2.16v4.36c0,1.19,0.97,2.16,2.16,2.16h4.36c1.19,0,2.16-0.97,2.16-2.16v-4.36
		C29.83,75.36,28.86,74.39,27.67,74.39z M28.83,80.91c0,0.64-0.52,1.16-1.16,1.16H23.3c-0.64,0-1.16-0.52-1.16-1.16v-4.36
		c0-0.64,0.52-1.16,1.16-1.16h4.36c0.64,0,1.16,0.52,1.16,1.16V80.91z"/>
	<path d="M39.76,74.39H35.4c-1.19,0-2.16,0.97-2.16,2.16v4.36c0,1.19,0.97,2.16,2.16,2.16h4.36c1.19,0,2.16-0.97,2.16-2.16v-4.36
		C41.92,75.36,40.96,74.39,39.76,74.39z M40.92,80.91c0,0.64-0.52,1.16-1.16,1.16H35.4c-0.64,0-1.16-0.52-1.16-1.16v-4.36
		c0-0.64,0.52-1.16,1.16-1.16h4.36c0.64,0,1.16,0.52,1.16,1.16V80.91z"/>
	<path d="M51.86,74.39H47.5c-1.19,0-2.16,0.97-2.16,2.16v4.36c0,1.19,0.97,2.16,2.16,2.16h4.36c1.19,0,2.16-0.97,2.16-2.16v-4.36
		C54.02,75.36,53.05,74.39,51.86,74.39z M53.02,80.91c0,0.64-0.52,1.16-1.16,1.16H47.5c-0.64,0-1.16-0.52-1.16-1.16v-4.36
		c0-0.64,0.52-1.16,1.16-1.16h4.36c0.64,0,1.16,0.52,1.16,1.16V80.91z"/>
	<path d="M29,26.01h41.35c0.28,0,0.5-0.22,0.5-0.5s-0.22-0.5-0.5-0.5H29c-0.28,0-0.5,0.22-0.5,0.5S28.73,26.01,29,26.01z"/>
	<path d="M81.39,66.39L71.07,76.9l-3.6-3.98c-0.1-0.11-0.25-0.18-0.4-0.16c-0.15,0.01-0.29,0.08-0.38,0.2l-3.67,5.02
		c-0.14,0.19-0.13,0.46,0.04,0.64l7.79,8.24c0.09,0.1,0.23,0.16,0.36,0.16c0.02,0,0.03,0,0.05,0c0.15-0.01,0.29-0.1,0.38-0.23
		l11.85-18.73c0.38-0.6,0.26-1.33-0.3-1.77C82.63,65.84,81.89,65.89,81.39,66.39z M82.64,67.52L71.13,85.7l-7.06-7.47l3.06-4.19
		l3.55,3.92c0.09,0.1,0.22,0.16,0.36,0.16c0.14,0.02,0.27-0.05,0.37-0.15L82.1,67.1c0.2-0.2,0.38-0.09,0.46-0.03
		C82.63,67.12,82.79,67.28,82.64,67.52z"/>
</g>
</svg>
